<mxfile host="app.diagrams.net" agent="Mozilla/5.0 (Windows NT 10.0; Win64; x64) AppleWebKit/537.36 (KHTML, like Gecko) Chrome/138.0.0.0 Safari/537.36" version="28.0.7">
  <diagram name="Page-1" id="eiE6D_oxOaidC46O7Wcd">
    <mxGraphModel dx="1042" dy="527" grid="1" gridSize="10" guides="1" tooltips="1" connect="1" arrows="1" fold="1" page="1" pageScale="1" pageWidth="850" pageHeight="1100" math="0" shadow="0">
      <root>
        <mxCell id="0" />
        <mxCell id="1" parent="0" />
        <mxCell id="7bAc5LoHbt2CsJ_FDrR3-1" value="" style="rounded=0;whiteSpace=wrap;html=1;" parent="1" vertex="1">
          <mxGeometry x="230" y="160" width="120" height="60" as="geometry" />
        </mxCell>
        <mxCell id="7bAc5LoHbt2CsJ_FDrR3-2" value="" style="shape=step;perimeter=stepPerimeter;whiteSpace=wrap;html=1;fixedSize=1;" parent="1" vertex="1">
          <mxGeometry x="230" y="70" width="120" height="80" as="geometry" />
        </mxCell>
        <mxCell id="6ZNBKxj-7wkmD4ID2eOZ-1" value="" style="shape=image;verticalLabelPosition=bottom;labelBackgroundColor=default;verticalAlign=top;aspect=fixed;imageAspect=0;image=data:image/png,iVBORw0KGgoAAAANSUhEUgAABM8AAAMgCAYAAAA0okUXAAAAAXNSR0IArs4c6QAAAARnQU1BAACxjwv8YQUAAAAJcEhZcwAAEnQAABJ0Ad5mH3gAAKYUSURBVHhe7N19XJX1/cfx9+VNaaXWzNJ152FYHoIcWFlrTV3NFgzKu1WcoC0292urdcOByqzIWSs4dLtVuqyFwSpLU4LuA1tbrRyYEMeSOKXZ3bq3zFS4fn8cOJzzhWOACpxzXs/H4zyS7+d7XedCzjlevPveWN98840tAAAAAAAAAB0MMBsAAAAAAAAA+FlbtmyxJcm2GYAGAAAAAAAABLO++uoru7m5WS0tLZKklpYWgjQAAAAAAABAkvXJJ5/YAwYM0KBBgzR48GANGjTI7AMAAIBu8nq9euqpp/Tqq6+qsbFRn3/+eeB/ViI27bfffjriiCOUnJysU045RT/+8Y/NLgAAoB+yduzYYQ8cOFBqnbppWZbZBwAAAF1UU1Oj+fPna8WKFZo0aZJOPfVUJSUl6aCDDuI+K8Z98cUXWrdunV544QVVVlYqJSVFc+fO1cyZM82uAACgH7Fs5mgCAADsFjfffLNyc3M1ffp05efn64QTTjC7AJKkDRs26JZbbtGtt96qOXPmaOHChWYXAADQTxCeAQAA7AZXXnmlbrzxRi1cuFBz5swxy0Cnqqurdf755yshIUGPP/64WQYAAP0A4RkAAMAuahtxtmLFCmVkZJhlYKd8Pp9OP/10HXvssXrggQfMMgAA6GOEZwAAALugpqZGEydOZMQZdsnq1at13HHH6c4779QFF1xglgEAQB8iPAMAANgFZ555pgYMGKBly5aZJaBbbrrpJt1yyy3auHGjBg8ebJYBAEAfGWA2AAAAoGvWrFmjFStWKD8/3ywB3Xb55ZfLsiwtWrTILAEAgD5EeAYAANBDy5Yt06RJk9hVE7uNy+XSI488YjYDAIA+RHgGAADQQy+88IJOPfVUsxnosWnTpqm6ulrbt283SwAAoI8QngEAAPRQQ0ODkpKSzGagx4455hhJ0htvvGGWAABAHyE8AwAA6KFPPvlEBx10kNkM9Fjb6+nTTz81SwAAoI8QngEAAPRQS0uLLMsym4EeGzDAf3ve0tJilgAAQB8hPAMAAAAAAADCIDwDAAAAAAAAwiA8AwAAAAAAAMIgPAMAAAAAAADCIDwDAAAAAAAAwiA8AwAAAAAAAMIgPAMAAAAAAADCIDwDAAAAAAAAwiA8AwAAAAAAAMIgPAMAAAAAAADCIDwDAAAAAAAAwiA8AwAAAAAAAMIgPAMAAAAAAADCIDwDAAAAAAAAwiA8AwAAAAAAAMIgPAMAAAAAAADCIDwDAAAAAAAAwiA8AwAAAAAAAMIgPAMAAAAAAADCIDwDAACIEr6iBFmWpYQin1nqokpVlrf/2WVZcgW+7iqfipMsWVbQI6lYPb2irqrMtmRlV5rNAAAAu4zwDAAAICpUal6+V85Ep7z589T9GKlSLitNpWZzt1TKZcVpcXaTbNsOPCqS3YqzXD24pq5LLbFll6SazQAAALuM8AwAACAalJeqTJnyLM+RU2Uq7faIsd2g7RryHCHNqSUVyuyrawIAANhFhGcAAABRoHJpmZTlUmr8DOUkSmVLQ8d5+YoSOkyfbG/zjzork1SWYUx/XFeshKApmN89jbNW3kazLVWltq3S9KCmxtDzhjxnY7ESLJeKW6ehWklX6aqkTqajlrtktY5o6zht0z/ttH36qDHyrdwVMrW0w7kBAABaEZ4BAABEusZiuZdImbNTJTmUe0OmtKS0G9MkU1VqVyhTUubK0OmPZfk18rRNwVyZqbKMBBV3CMdapS+QJ9Er97hOArFg5S5Z4xYrZ33b1M4meWrTjP5lctd5/PW66/Wb7I7TUQOBYVBba8UfBmZVtE8dzSpTWmt46CtKkJUhVQSmllYoOT+OAA0AAHTKsm3bNhsBAF1XXV2t6upqszlmWJYl/ilBrLruuutUVVWlKVOmmKVe5StKUFxJjprqcuWfMOkPj2oLm9TQOoWyYx+zzX+MVraNEOt4jra29j5hlLtkZZSFNDmDzlOZbcmdFHze1tFm4xYrZ32DclWshHFuJYc8j/ncoV9XZltKU4U/+Ct3tYZjpZ0Eaz4VJ8Wp5gbje9jpMb3Lsiydd955Gjt2rFlCP1RQUGA2AQCiDOEZAOyi6upqTZ06tc9/eQbQ+6qrq/tBeOYPgxZnh4ZRldmW0mo9gbCsp+FZaFDWWdt38V+fu94/qq00vf3rjpzyBMKz1iAtvr26s4AsuNbZ9xp0lsAU1Y4y+0149sMf/lD777+/WUI/M3nyZMIzAIgBhGcAsIvawjM+ToHYY1lW34dnnYzyatcaRsWbQZlf74Rnag/Qkitkl6iTEW2G4FFoQeFZcGAmY/Ral8Ozxs5GtfUv/eJ1he80depUwjMAiBGseQYAABDBKpeWSYkeNQXW72pfxytTXrnnh1l3TJK3zms27QKfipPCrXPmkDO57c9OpST28LnTXf5dO4uK5V7iVM70DtGYJMkxPlmqr1GnzxDvVLKk2nWsb4ZdZ1mW2QQAiEKEZwAAABGrUqVLpMwbOhlhpVS5shTYOMAfKLk1r223zNZNBtr5Q62eh0ptGxWkdVx4v9EfdnmuCd7QIC1k505fUULHHTE7SNWCQqfK8t3yJuZoRvCotGCtIZs7+DoCO3P6z+HNTwvZ+KAy2+qwGynwXRh1DgCxgfAMAAAgQvmK3CpTplxhph+mXuORU2UqLZeUXqqmQqfKMlp3wpwueQqdQb0dmpHtlDc/ruchUnppYOdKy2p9HsuSNa5GHjtoCmZ6aevOne194vKTu7TemGN6jpySnNkzOgkM2/h3Dw25jqD10Rx5DWoqVPuuoFbo+nAAAADBWPMMAHYRa54BsYu1qbAn8LqKDKx5BgCxg5FnAAAAAAAAQBiEZwAAAAAAAEAYhGcAAAAAAABAGIRnAAAAAAAAQBiEZwAAAAAAAEAYhGcAAAAAAABAGIRnAAAAAAAAQBiEZwAAAAAAAEAYhGcAAAAAAABAGIRnAAAAAAAAQBiEZwAAAAAAAEAYhGcAAAAAAABAGIRnAAAAAAAAQBiEZwAAAAAAAEAYhGcAAAAAAABAGIRnAAAAAAAAQBiEZwAAAAAAAEAYhGcAAAAAAABAGIRnAAAAAAAAQBiEZwAAAAAAAEAYhGcAAAAAAABAGIRnAAAAPTR8+HB98cUXZjPQY59//rnU+toCAAD9A+EZAABAD8XHx2vdunVmM9Bjba8nh8NhlgAAQB8hPAMAAOihE088US+88ILZDPRYdXW1jjnmGB1wwAFmCQAA9BHCMwAAgB7KyMhQZWWlNmzYYJaAHnn44Yd1xhlnmM0AAKAPEZ4BAAD00LRp05SSkqJbbrnFLAHd9tBDD6m2tlbnn3++WQIAAH2I8AwAAGAXzJ07V7feequqq6vNEtBlmzdv1ty5c5WXl6exY8eaZQAA0IcIzwAAAHbBzJkzNWfOHJ1//vny+XxmGeiS8847T9/73vdUWFholgAAQB8jPAMAANhFCxcuVEJCgk4//XStXr3aLANhbd68WTNmzNDq1au1ZMkSswwAAPoBwjMAAIDd4PHHH9exxx6r4447TjfddJNZBjp46KGH9MMf/lAbN27U008/rfHjx5tdAABAP0B4BgAAsJs88MADuvPOO3XLLbdozJgxcrvdevrpp/XBBx+opaXF7I4Y8/nnn+vll1/WjTfeqJSUFJ199tmaOXOmXn31VYIzAAD6Mcu2bdtsBAB0XXV1taZOnSo+TgG02b59uxYtWqRHHnmEjQTQwTHHHKMzzjhD559/PpsDRLCpU6dq8uTJKigoMEsAgChDeAYAu4jwDMDObN++XW+88YY+/fTTmB19tmXLFqWlpWnhwoU68sgjzXLMGD58uBwOhw444ACzhAhEeAYAsYPwDAB2EeEZAOzc5s2bNXz4cK1evVoTJ040y0BEIjwDgNjBmmcAAAAAAABAGIRnAAAAAAAAQBiEZwAAAAAAAEAYhGcAAAAAAABAGIRnAAAAAAAAQBiEZwAAAAAAAEAYhGcAAAAAAABAGIRnAAAAAAAAQBiEZwAAAAAAAEAYhGcAAAAAAABAGIRnAAAAAAAAQBiEZwAAAAAAAEAYhGcAAAAAAABAGIRnAAAAAAAAQBiEZwAAAAAAAEAYhGcAAAAAAABAGIRnAAAAAAAAQBiEZwAAAAAAAEAYhGcAAAAAAABAGIRnAAAAAAAAQBiEZwAAAAAAAEAYhGcAAAAAAABAGIRnAAAAAAAAQBiEZwAAAAAAAEAYhGcAAAAAAABAGIRnAAAAAAAAQBiEZwAAAAAAAEAYhGcAAAAAAABAGIRnAAAAAAAAQBiEZwAAAAAAAEAYhGcAAAAAAABAGIRnAAAAAAAAQBiEZwAAAAAAAEAYhGcAAAAAAABAGIRnAAAAAAAAQBiEZwAAAAAA9Cs+FSdZsqzOHgkqbjT774pKVZabbQCCEZ4BAAAAANAPOQubZNt2yKOpUHKPc6nS7NwjlXJZaSo1mwGEIDwDAAAAACBCOPI8ylSZShktBvQawjMAAAAAACJYZfbOpnVWyhUy7bNt1Jp/1FmZpLIMS1Z221i20P4JRcVyWZZcrWFdZXZ7mxXUrnJXyPTShCJfa0GdTEM1rxHo3wjPAAAAAACIEJXZaSpTplzpCoRSabUeNYVM62wLp3wqTkpTbdD0z4qsMqVlV0pKValdoUxJmStt2SWpgf5lWRWt/ZuUU+JWmXEN3vzFSlnvP19puuQrSpCVIVUEppdWKDk/LhCgVWbHyZ3cds7Wa5xerOB4DejPCM8AAAAAAOiHvPlxHTYMSFuSqQq7VKmS1LhMi+ud8izPlaP1GEdehTyJXi1e7pPkVU196DlTS9qCsk6Uz5O7PlMVgbpDucs9chrdlJijGfFtX/i0rMSrzJWt1yT5g7mVmfLmz1OlfPLWBgqSJEdeg+y69msG+jvCMwAAAAAA+qHONgyw24IzSfLWyKtkOQNBliQ5NCPbKW+dV1KqFhQ6g0K4nW804FtXKyWmhIZl8U4lB38tScnOoODLH9CVZYSGfFZG23g1h3JvyJSWpDFlExGL8AwAAAAAgCjiD878HHkNgamUmSpTWhdCtG5p9Kq2bepnuKAvvTQwDdST6JV7HCEaIgvhGQAAAAAAkciZIqdq5Q0JofzTJJ1J5mTLVJUGhWid7dbpGJ8s1deoPXprD8fCah2ZVruuKyuYOZRb1x6i+aeWAv0f4RkAAAAAAJEofoZyEr0hi+/7itLkrncqZ7ojsHNmyM6X5aVBGw44lZIYFHylL5AnsW1DAfk3EJjuDg3TOmibGpoWMpKsMtuSlVQsX9tOm4Fztq/V5r9GoP8jPAMAAAAAICL5R3JVJLsV17rWWFy+5FnfoNx4+UebrfdIwRsPZNTKs75t3bTW9dHy41qDLody6yqUGVifLE6Lsz3KNJ/W4MhraN3lM2hjg1qPmupy5ehwTkvWOLeSV7ZdI9D/WbZt22YjAKDrqqurNXXqVPFxCgCd27x5s4YPH67Vq1dr4sSJZhmISFOnTtXkyZNVUFBgloAoUymX5VZKIJADYg8jzwAAAAAAgFTu6rCQf2V2msoSczSD4AwxjPAMAAAAAABI6aU7mX4JxC7CMwAAAAAAILWuX2bbdvuD4AwgPAMAAAAAAADCITwDAAAAAAAAwiA8AwAAAAAAAMIgPAMAAAAAAADCIDwDAAAAAAAAwiA8AwAAAAAAAMIgPAMAAAAAAADCIDwDAAAAAAAAwiA8AwAAAIAesCzLbAIARCHCMwAAAADoAdu2zSYAQBQiPAMAAAAAAADCIDwDAAAAAAAAwiA8AwAAAAAAAMIgPAMAAAAAAADCIDwDAAAAAAAAwrBstogBgF1SXV2tqVOnsuMWAISxefNmDR8+XKtXr9bEiRPNMhCRpk6dqsmTJ6ugoMAsoR+prq42mwAYpkyZYjbBQHgGALuI8AwAdo7wDNGI8CwyFBQU6LrrrjObAbSaMmWKqqqqzGYYmLYJAAAAAIhaU6ZMkW3bPHjwMB7XXnut+XZBGIRnAAAAAAAAQBiEZwAAAAAAAEAYhGcAAAAAAABAGIRnAAAAAAAAQBiEZwAAAAAAAEAYhGcAAAAAAABAGIRnAAAAAAAAQBiEZwAAAAAAAEAYhGcAAAAAAABAGIRnAAAAAAAAQBiEZwAAAAAAAEAYhGcAAAAAAABAGIRnAAAAAAAAQBiEZwAAAAAAAEAYhGcAAAAAAABAGIRnAAAAAAAgxlTKZVlylZvtkuRTcZKlhCKfWUCMsmzbts1GANjTvv76a9XX1+utt97Shx9+qK+++krNzc2SJMuyzO792ttvv62///3vKigoMEtRaZ999tGoUaN0xBFHKCEhQQcffLDZBQBCbN68WcOHD9fq1as1ceJEswxEpKlTp2ry5Mkx8+9/pCooKNCqVatUVVVllhDzKuWy0qSVtkrTzZpPxUlxWpzdpIY8h1mMGrw/uo7wDECveemll7Ry5Uo9++yzWr16tSRp9OjRGjNmjIYNG6YBAyJzMGxLS4u2bdumIUOGmKWoY9u2tmzZoo8++kjvvPOOJGncuHGaOnWqfvGLXyg9vcOdBwAQniEqEZ5FBsIBhEd4xvuj6wjPAOxxd911l/72t7+ptrZWP/7xj3Xaaafpxz/+sZKTkzVixAizOyLE9u3btXbtWr300kt69tlntWLFCo0ZM0Y5OTm68MILGZEGIIDwDNGI8CwyEA4gvO6EZ/6v3fVtdac86xuUG99+RGW2pbQlndcrsy25kzxKznerTFJmp8/Z+3h/dF1kDvMAEBHuvfde/eAHP9BVV12l008/XW+++ab++c9/at68eZoyZQrBWYQbPHiwJk6cqAsvvFCPPfaYPv/8c82dO1ePPfaYDj30UF177bXmIQAAAEDEqcyOkzu5QrZty7ZtNRVK7unF8q+I5l8fLU3tdXtlstzjElTc2H4Ob/5ipaz31/tDcIbuITwDsNs1NjYqLS1NOTk5ysrK0qZNm3T99ddr3LhxZldEkREjRujCCy9UXV2dFi5cqPvvv1/jx4/XE088YXYFAAAAIoRP3trQFkdeg+y6XDkkqXGZFtdnqqIktb1Deqkqsrxyz69sb0vM0YygkWqILIRnAHarhx9+WCkpKbJtW16vVwUFBRo6dKjZDVHu/PPP15tvvqlp06YpNTVVf/rTn8wuAAAAQARwKPeGTGlJmizLkmWFjiiTt0ZelSnNslrr/kf7FM5WyU5/2IaIRHgGYLe55ZZbdNZZZ+mSSy5RZWWlxo8fb3ZBDNlrr710++23q7S0VPPnz9dvfvMbswsAAEDM++qrr7Rp0ya9/vrr+ve//61XXnlFb7zxhj744AN98803ZnfsNk6lJJptoZLHt8Zd6aWtUzKb5En0yj2uPUTzrauVlKmKtimbwY/g0WiIaIRnAHaLwsJCXXbZZVq0aJHmz59vlhHDMjMztWrVKlVUVOjcc881ywAAAFHv7bff1ooVKzR//nzNmjVL48aN04EHHqjBgwdr2LBhOvTQQ5WYmKiTTjpJkyZN0vjx4zVmzBjts88+2nvvvXXQQQfp2GOP1fnnn69bbrlFzz33nP73v/+ZT4NucciZLNWu869cFqJxmRbXO5XiNAsO5da1h2iLl/vkGJ8sqVbe4NFoiDqEZwB22aJFi3T55Zfr73//u37729+aZUA/+tGPVFlZqaefflq///3vzTIAAEBU2bRpk/7617/qtNNO04EHHiiHwyGXy6WnnnpKBx10kHJzc7Vw4UI98cQTeuWVV/Tmm2/qww8/1NatW/X111/rvffeU0NDg1566SWtXLlSf/nLXzR79mxt27ZN9913n0499VQddNBBOvzww3XeeefpkUce0bZt28zLwHdInZ0pb36cXOXBrT4VT3fLm+Vp3S3TvyGAlR20fllruJYz3SGlL/CPRgtsIKDWnTwtJRR1EswhIlm2bdtmIwB0VXV1taZOnapbbrlFl1xyiVkGQrS9XoqLi3XZZZeZZQBRavPmzRo+fLhWr16tiRMnmmUgIk2dOlWTJ09WQUGBWUI/UlBQoFWrVqmqqsos7XY+n08rVqzQihUrVF1drSOOOEJnnHGGfvSjH2nChAm7dUmT7du3q66uTmvXrtUTTzyhlStXqqWlRRkZGcrIyFB6err2339/8zB0prFYCePc8ga3ZVUYUy4r5bLSVBbUkrkyeNdMn4qT4uSub687C5vUkOef9lmZ3bobZz+bxtmb749IR3gGoMd27NihY445RieffLIWLlxoloFOLVq0SL/73e/073//WyeeeKJZBhCFCM8QjQjPIkNvhAOvvPKKbrnlFj344IOKj4/XGWecoTPOOEMnn3yy2XWP2bFjh1auXKny8nKtXLlSX331lS655BJdeumlGj16tNkdkHrp/REtmLYJoMfy8/PV0tKiv/zlL2YJCGvOnDk699xzlZeXZ5YAAAAixssvv6yzzjpLkyZN0tdff63nn39e69evl8fj6dXgTJIGDRqkGTNm6L777tMnn3yihQsX6qmnntIhhxyi3Nxcbdy40TwEQDcQngHokdraWt1yyy264YYbNHjwYLMM7NSNN96o//73v7rrrrvMEgAAQL/2ySef6KyzztKJJ56ob7/9VtXV1Vq5cqWmTp1qdu0zv/rVr7RmzRrdf//9WrVqlQ4//HBdddVVZjcAXUR4BqBHPB6PUlNTNWPGDLMEfKdDDjlEV111lQoLC80SAABAv1VRUaGUlBRt3LhRL7zwgh577DFNnjzZ7NZvnHvuuVq9erUefPBBLVq0SKeeeqrWr19vdgPwHQjPAHTbG2+8obKyMl166aVmCeiySy+9VJ988onuvfdeswQAANDvzJs3T7/4xS80c+ZM/fvf/+71qZm74qyzzlJNTY2GDBmilJQUPfDAA2YXADtBeAag2+6//34dd9xxOvXUU80S0GX77ruvcnJydP/995slAACAfmX69Om6++679dBDD+nmm282yxHhsMMO0+OPP678/HxlZWXpmmuuMbsACIPwDEC3PfLIIzr77LPNZqDbzjnnHL3wwgtqbGw0SwAAAP1CTk6OXn31Vf3rX//SL3/5S7Mcca6++mo98sgj+tOf/qQ77rjDLAPoBOEZgG557bXXtH79emVkZJgloNuOP/54xcfH64knnjBLAAAAfS4/P1//+Mc/tHTpUh111FFmOWLNnDlTd911l/74xz/qwQcfNMuRodwly7I6ebhUafbtivLKbhxXKZdlyVVutiNaEZ4B6JYXXnhBRx11lOLj480S0CNTp07VCy+8YDYDAAD0KY/Ho6KiIi1dulQnnniiWY54//d//6f58+cHZgJEpkxV2LbsoEdTYa3SrAQVd2diQ7lLVkap2QoEEJ4B6Jb//ve/Ou6448xmoMeOO+44rV692mwGAADoM99++60KCwt18803Ky0tzSxHjauvvlpnn322PB6PWYpYjrwGVWR55Z5eLJ9ZBHqI8AxAt6xbt04JCQlmM9BjRx99tN5++219/fXXZgkAAKBPFBUVab/99ouJ3eVzc3NVXl6u559/3ixFrNRrPHLWL9aywOgzn4qTwkzvLHfJyiiTVKa04KmYnUwLTSgy4rh1xUoIqpvTOCuzzecMHRHnK0rY+fmNa+hQR68hPAPQLRs2bNARRxxhNgM91vZ6evfdd80SAABAr/viiy9UVFSkvLw8sxSVjj32WLlcrqgafaZ4p5LlVY3X/2VldpzcyRVB0zsrlKkypWVXSumlsldmBqaAlqZLaixWQkatPOuDp4M65c1PCwm/yvJr5Gk758pMlWW0h2O+ogSl1XrUFHjOJnkSg0bElbsUl5/cPu10vUcKOr+vKEFWhoKmpVYoOT+OAK2PEJ4B6JZPP/1UI0eONJuBHmt7PX366admCQAAoNc99NBDGjVqlC644AKzFLVyc3P1xBNPyOttTZuiTGqJLbskNbhFrqygL03xuWqwG5QbtMyzY3qOnMF9JGWuLFXgrOml/umi8/3bDjjyGmTX5coR6O3QjOz2M/jW1Qb+LJnP6dOyEm/o+ZWq0pWZ8ubP68bGBthdCM8AdMu3336rvffe22wGemzIkCFS62sLAACgr73++usxt0xJcnKy9t9/fzU0NJilqBI8TTJtiVntjH9XTcuyZI1zKzRadCrFSNOcSU6p1hu61lrQ1Mu4/PYzOPI8/tFvnU7J9KqmXirLMKZ9ZpQF9UFvIjwDAAAAAKBVQ0ODjj76aLM56iUkJERPeNboVa0y5Ur3f9m29ljwNMmKnY08a2xbyyxNtYVNgWmV5siznQkEdUHTP5sKg8+QqtKQKaFx7SFao1e1kjJXhu4k6n8Ej0ZDbyE8AwAAAACgVUNDQ8yNPJMkp9MZNeFZ5Xy3vFmu1pCpUqVL2oKotuDJJ68xazKYb/lieRP965U15LVOvPTWGCPP2tdUC7TUeaVkpxyt0y6dhU2yg6Z/eus6nxbryGtoD9FKlskX71SypNp1rG/WXxCeAQAAAADQ6r333tOXX35pNke9999/Xy+99JLZHHF8RQlKW+KU55rQ8VnBQVRldpzc9UFFZ4qcqpU3aDMA1QeFZY3FSuhkymRZRuuOnfJPzzSfNzgs819X4MvWkWlBx7cFbtkz5FCqFnSyQUFltiUrqXXDAfQqwjMAAAAAAIJEywis7mhsbFRzc7PZ3M+1rxnWvq5YsipCFvtPVel6j9Q6LdKyLKWpwj+FckmpP7yKn6GcRK/c4/zTJh15DarICjr3uMXKWV+hTHm1eHl7dJVZmCJ3YD2yWnnWtz2vQ7l1FcpcktZ+XSU5alqZKdUv1rJG/2izkOew/DuCto10c+Q1qKlQco9r/97Saj1qCtmEAL3Fsm3bNhsBIBzLslRVVaUpU6aYJaDHeF0B0W3z5s0aPny4Vq9erYkTJ5plICJNnTpVkydPVkFBgVlCP1JQUKBVq1apqqrKLIVlWZbS09O1cuVKsxTVRo4cqQMPPFBvvPGGWUKU6sn7I1Yx8gwAAAAAgCAbN240m6JaS0uLPvvsM+2zzz5mCQDhGQAAAAAAoerr62MqQHvwwQc1dOhQDR8+3CwBIDwDAAAAACDUD3/4Q82fP99sjkrNzc2aN2+eTjrpJA0YQEQAdIZ3BgAAAAAAQbKysnTfffepqanJLEWd++67T5999pmOPfZYswSgFeEZAAAAAABBjjnmGJ1wwgmaNWuWtm7dapajxhtvvKG8vDxdfPHF2muvvcwygFaEZwAAAAAAGEpKSrRhwwZNnz5dzc3NZjniffjhh/rpT3+qhIQEXXHFFWYZQBDCMwAAAAAADHFxcXruuef0r3/9S7/61a/MckTbvHmzTj31VI0aNUpPPvmkhgwZYnYBEITwDAAAAACATkyYMEFPPvmkHnnkEWVkZOijjz4yu0Sc//73v0pJSdG2bdv03HPPadiwYWYXAAbCMwAAAAAAwvjRj36kl19+WQ0NDUpISNCyZcvMLhFh+/btmjdvniZNmqSjjjpKL7/8skaOHGl2A9AJwjMAAAAAAHZiwoQJWrt2rWbOnKmZM2fq7LPPjqhRaK+99ppSUlJ0/fXX67bbbtPjjz+uAw44wOwGIAzCMwAAAAAAvsM+++yjhQsXavny5Xr66aflcDjkdrv7dYjW0NCgGTNmKDk5WbZta926dfrDH/5gdgPwHQjPAAAAAADoojPPPFONjY265JJLtGjRIo0dO1a5ubn9KkSrq6vT9OnTlZiYqNraWi1cuFBr1qzRUUcdZXYF0AWEZwAAAAAAdMP3vvc9XX/99Xr77bd16aWX6m9/+5sOO+wwpaamavHixfr000/NQ/a49evX64YbbtDEiRN1zDHHaM2aNVq4cKHWr1+v3/72txo0aJB5CIAuIjwDAAAAAKAH2kK09957T4sWLdK2bdv0m9/8RiNHjtRPf/pT3XHHHXrttdfMw3aLLVu26N///reuvvpqJSYm6sgjj9Sf/vQnHXnkkXrqqafk8/kIzYDdhPAMAAAAAIBdsN9+++m8887Ts88+q3fffVeFhYX6/PPP9cc//lE//OEPZVmWkpOT5XK5dNNNN6myslJr1qzRpk2bzFOF+Oqrr+Tz+fTKK69o2bJlmjdvns4880zFxcVp33331UknnaQFCxbo+9//vsrKyvTxxx/rH//4h6ZNm2aeCsAuIDwDAAAAAGA3OeSQQ5SXl6eamhq9/vrruueee3TZZZfpwAMP1PPPP68rrrhCaWlpSk5O1qGHHirLsjR8+HD94Ac/0EknnaSUlBQddthhGjp0qIYNG6a4uDhNmjRJM2fO1PXXX6/XX39dEyZM0NVXX61//OMfev/99/X000/rnHPO0b777mteDoDdwLJt2zYbASAcy7JUVVWlKVOmmCWgx3hdAdFt8+bNGj58uFavXq2JEyeaZSAiTZ06VZMnT1ZBQYFZQj9SUFCgVatWqaqqyiyFtafvSz7//HO9/vrr+uKLL7Rly5bA4+uvv9aWLVs0cOBA7bPPPiGPfffdVwceeOAe/Qztyd8VIhs/865j5BkAAAAAAL1k//3310knnaTU1FTNmjVL2dnZ+r//+z/l5ubq6quv1ty5c3XJJZdozpw5OvfcczVjxgyddtppezQ4A7BzhGcAAAAAAABAGIRnAAAAAAAAQBiEZwAAAAAAAEAYbBgAoFv29AKq4Xz00Ueqrq7WW2+9pW3btpll7KIBAwbokEMO0Yknniin02mW97i+el0B6B1sGIBoxIYBkaEnC6LH6n1JT/6uENn4mXcd4RmAbuntmwmfz6eCggKVlJTogAMO0Pjx47X33nub3bCLmpub9c4772jDhg366U9/qrlz5+qUU04xu+0xvf26AtC7CM8QjQjPIkNPwoFYvS/pyd8VIhs/864jPAPQLb15M7FixQplZWXpuOOOU25urlJTU80u2M1qamr0l7/8Rffdd59uuOEGXXnllWaXPaI3X1cAeh/hGaIR4Vlk6Ek4EKv3JT35u0Jk42fedax5BqBfqq6u1plnnqk//OEPeu655wjOeklKSoruvfdelZSUaO7cubr55pvNLgAAAAAQUwjPAPRLF198sebMmaM///nPZgm9ICsrSwsXLlRubq7q6urMMgAAAADEDMIzAP3OvffeK5/Pp8LCQrOEXjRnzhxNmzZNt956q1kCAAAAgJhBeAag33n00UeVlZWlESNGmCX0sl//+tdaunSp2QwAAAAAMYPwDEC/8+qrr+rkk082m9EHJk+erM2bNzN1EwAAAEDMIjwD0O/873//0+jRo81m9IExY8ZIkj755BOzBAAAAAAxgfAMAAAAAAAACIPwDAAAAAAAAAiD8AwAAAAAAAAIg/AMAAAAAAAACIPwDAAAAAAAAAiD8AwAAAAAAAAIg/AMAAAAAAAACIPwDAAAAAAAAAiD8AwAAAAAAAAIg/AMAAAAAAAACIPwDAAAAAAAAAiD8AxAdGksVoJlyUoqls+sdYlPleXtR1ZmW7KyK0N6dFm5S5ZlhTwSinp2VbuuUi7LkqvcbAcAAAAA7AzhGYCoUjnfLW+iU856t+Z1OyjyqTgpTu51Znt3+VScZMnKkCpsW3bgUaHk/LhdCPYAAAAAAL2N8AxAFKlU6RIp84YK5SRKZUt7OGJsF/mK0uSuz1SFXarUkEqqSu0KZfYo2AMAAAAA9AXCMwDRo7xUZcqUK92hGdlOaUmpQuKzxmIlWAkqbuysrXXUWb3k7TA6zOsfSdY2/XKn0zh9WlbilbNwgRGctUlVqW2rNN3/VWfTQju07XT6Z6VcVoKKi9r6uFq/Z/80zfb+3vbzAQAAAAC6jPAMQJTwqXhumZTlUqokR55HmSpTaZdHeDmUW9ckT6LkLGySXZcrR1tpiVs1N7RPvcxckhZ+7bLGZVpc71TO9MDRu6axWAkZtfKsb5/+2VTolDc/LSgE9MpdkqIm25ZtlypVPhUnpaksq6L1mCbllLhVFnpmAAAAAEAXEJ4BiA6toZXnmrbxXqlyZUllc3fD+mKJHi1oHSnWdl5vXXdGcoWOAvvu0WtB4nPVYDcoN769yTE9R87gPpKc2TPaw77yef5poyVtfxcO5S73dDgGAAAAAPDdCM8ARAXf8sXyJuZoRlDIlDo7U6pfrGXB0zR7ItnZHkz1iH+qZtvIsYoss94VQQHcOLfM6C55fPsV+tbVSokpoWFZvFPJwV8DAABEqA0bNujTTz81m3ebESNG6JNPPjGbo96nn36qESNGmM0ACM8ARIdKzcv3SvVuxQWP7sook+TV4uW7PPas6+JnKCdxNz5nY7ESLEuWlabawiZ/ALeeUWQAACB2HXTQQTr22GN13XXX6auvvjLLu+zoo49WQ0OD2Rz1GhoalJCQYDYDIDwDEBXKS1UmZ8i6YMGjvLz580I3DgjmrekwimvX+Dcr2Olz7pRP3tqgr5YvljfRoybbVkNe6+iy77hmx/hkqd7o0+hV0GkBAAAi1pAhQ/T73/9eBQUFOvTQQ+XxePTNN9+Y3XqM8AyAifAMQMSrXFomZXlC1gVrkzo7U2rbOCDeqWR55Z7fFmu1bjIQ4JAzubvrmXXkyGtQRVaZ0sydPVunXqYtaV+bzZnklJa42/uVz5O7PvgYhQZhjcVKyPiOpf/TF8iTWKa0wLpqPhVP7zjVEwAAIFL93//9n4YNG6YvvvhCV111lQ4//HDdfvvt2r59u9m122IxPPvf//6n999/n/AMCIPwDEBkayyWe4mUObttcXxD+gJ5EqWypZX+tcfWe+RcktY6tTNNuiF0CmTq7ExpSZosy9XDkWN+qSW27JXJco8L3iigbepl+wYA/qDN295vqStkTbT2IK5tvbPFyllfocydTkdt3Tm0tu37jNPibI8yzW4AAAARar/99lNeXp4GDx6sbdu26ZNPPlF+fr7Gjh2r++67T83NzeYhXfbTn/5Ua9eu1eOPP26WotZtt92mhIQEpaSkmCUAkizbtm2zEQDCsSxLVVVVmjJlilnabXrjOdB1vfHz6I3nANB3Nm/erOHDh2v16tWaOHGiWQYi0tSpUzV58mT+7epDX331lWbOnKlt27YF2izL0uDBg3XIIYfopptu0uuvv65Vq1apqqoq5NjvMmfOHL3xxhtatWqVWYo6H374oQ477DAtWrRIv/rVr8wyolhBQUGP3h+xiPAMQLf0RsjRG8+BruuNn0dvPAeAvkN4hmg0depUVVdXm83oAwMGDFBLS4vZLEk69thjtd9++3U7HGhsbNS4ceO0dOlSzZo1yyxHFbfbreeff141NTVmCVGO8KzrmLYJAAAAAN1UVVXVYaMiHr37eOedd2RZVkhwNmCA/1fcSZMmqaqqSmlpaUE/ta6Lj4/XH//4R11++eV6++23zXLUWLFihYqLi5WXl2eWAAQhPAMAAAAARJz58+dr0KBBkqSBAwdKko477jg999xzevnll3d5RPttt92m8ePHa/bs2fryyy/NcsT75z//qVmzZunKK6/UOeecY5YBBCE8AwAAAABElI0bN+rvf/+7duzYIUlKSUnRM888o5dfflk//elPze499vDDD2vQoEGaPXu2WYpor7/+umbNmqWcnBzdcMMNZhmAgfAMAAAAABBRCgsL1dzcrIkTJ+qpp57SK6+8olNPPdXstsv23XdfLV26VG+//bZ+/vOfq6mpyewScZ588kmlp6frJz/5ie6++26zDKAThGcAAAAAgIjx8ccfa+3atXryySf16quvatq0aWaX3erQQw/Vk08+KcuylJycrLKyMrNLxCgoKNDpp5+uX/ziF1q6dKlZBhAG4RkAAAAAIGIMHjxYq1at0mmnnWaW9hiHw6EnnnhCl112mVwuly666KLAlNFI8NZbb+nnP/+5brvtNpWVlen22283uwDYCcIzAAAAAEDEGDFihNnUa6699lo99dRTeuKJJ3TooYfqpptu0rZt28xu/UZTU5MuuugixcfHy7Is1dTUsDkA0AOEZwAAAAAAdNG0adPU2Nioyy+/XH/961916KGH6s9//rO2bt1qdu0zjY2N+sMf/qAf/OAHqqmp0dKlS/XEE0/I4XCYXQF0AeEZAAAAAADddOmll2rDhg266qqrtGjRIn3/+9/X+eefrxUrVphde8XHH3+sxYsXKyMjQ+PGjdNrr72mRx99VP/61780a9YsszuAbiA8AwAAAACghy6++GL5fD7deuut+uKLLzRr1iwNGzZM5557rpYuXaoPPvjAPGS3aWxs1F133aWf//znGjVqlK666iqNGTNGFRUVevHFFzVjxgzzEAA9QHgGAAAAAIhKlmWZTXtMdna2Hn30UX355Zf629/+pubmZp133nkaM2aMDj30UKWlpWnu3Ll68MEH5fV69fHHH3dp04GtW7fqgw8+0Kuvvqp77rlHf/zjHzV58mQdcMABGjdunP785z9r3LhxeuaZZ/TBBx9o4cKFSk1NNU8DYBcQngHod4YNG6Yvv/zSbEYf+OKLLyRJ++23n1kCAABAJ4YOHaqzzz5b//jHP/TVV1+ptrZW119/vcaPH69XXnlFF110kRISEjRq1CgNHjxYw4YN06GHHqqjjz5aJ510kiZNmqTx48dr9OjRGjp0qIYOHaoxY8bo+OOP1/XXX6933nlHkydP1j333KM333xTGzZs0B133KFTTz3VvBQAu4ll27ZtNgJAOJZlqaqqSlOmTDFLu81JJ52kU045RfPnzzdL6GXPPPOMpk2bpq+++kr77ruvWd5teuN1BaDvbN68WcOHD9fq1as1ceJEswwAe8x1112n6upqVVVVmaU+tXHjRn3++ef64osvAv9t+/OgQYO0//77a8SIERoxYkTgz6NGjdKBBx5ongrosYKCAq1atarfvT/6I8IzAN3SGyHHn//8Z91///1at26dWUIvO//88/Xhhx+qoqLCLO1WvfG6AtB3CM8A9JX+Gp4B/QHhWdcxbRNAv/O73/1O7733njwej1lCL6qurtZ9992n3//+92YJAAAAAGIG4RmAfud73/uePB6P8vLy9OCDD5pl9IK6ujqdd955mjNnjtLS0swyAAAAAMQMwjMA/dKcOXM0f/58nXPOObryyisDC9djz1u0aJFOOukknXDCCVq4cKFZBgAAAICYwppnALqlt9emevjhh3X11VerqalJaWlpcjqdGjJkiNkNu6i5uVlvv/22nnvuOX322We6+uqrdeWVV5rd9pjefl0B6F2seQagr7DmGRAea551HeEZgG7pq5Dj0Ucf1fPPP6/GxkZt27bNLGMXDRgwQIceeqhOOukknXXWWRoxYoTZZY/qq9cVgN5BeAagrxAOAOHx/ug6wjMA3ULIgT2B1xUQPb799lu53W5deOGFOuqoo6Qw4dn777+vwsJCXXnllTrooIOMswDA7kE4AITH+6PrWPMMAAAAu83ee++tI444QuPHj9fZZ5+thoaGkPqGDRt0wQUX6LDDDtP27dsJzgAAQL9HeAYAAIDd6ve//71GjBihhx56SEcffbR+9atfSZIWLFggh8Ohu+++W5I0d+5c40gAAID+h/AMAIA+51NxkiXLCnokFctndtvNKrMtWdmVZjOwy/bZZx/NmzdPe+21lyTpmWeeCfy3paVFe+21l37729/q+9//vnEkAOxelmWZTQDQbSFrnm3fvl1vvPGGPv30U7W0tIT2REwZPny4HA6HDjjgALOEGMfaVNgTYvt1VSmXlabawiY15DnaW7MtpS3JVIVdqtSQ/uhrmzZt0saNG7V161azhCDffvutZsyYoS1btpglDRgwQA8//LBGjhxpliLGoEGDNHr0aMXHx5slAP0Iu20C4bHmWddZ27ZtsxctWqRHHnlE1dXVZh0x7phjjtEZZ5yh888/X2PHjjXLiEGxHXJgT4np11W5S1aGOgnJ/KGaVtoqTQ8poA/8+9//VklJiSorK7Vx40azjBg2fPhw/exnP9M555yjmTNnmmUAfYzwDAiP8KzrBhx22GFasGCBJk6cqKeeekrvv/++mpubZds2jxh+fPbZZ3rppZd0zjnn6PHHH5fD4VB+fr75+gEA7Ba18jaabakqtY3grLFYCcFTO4OnXDYWK8FyqbgooXXa51W6KslSQpEx+bPcJctyqbLTaZuVcgWfv7VfQLkrZGpph3NHobfeekuzZ8/WSSedpHfeeUfz5s1TXV2dvv766w7/dvLo+Ni8ebP23XffkL/TgQMH6v333+/QN9Ie27ZtU1NTk+655x7tt99+mjVrlo4//ng9/fTTId8vAACIfAMuvfRSvf/++/J4PJo2bZpGjx6tAQNYCi3W7b///jrhhBN0xRVXqKamRg8++KAeffRRHXfccVq3bp3ZHQDQU+kL5En0yj2uk0AsWLlL1rjFylnf9st7kzy1aUb/MrnrPP563fX6TbZT3vx5IQFY5dIyKcvVyVRQ/0i3sqyKQDhQkVWmtNa113xFCa0j5Nqev0LJ+XFRHaAtW7ZMycnJ+uKLL/TSSy/piSee0Jw5c5SYmKh99tnH7I5O7Lfffpo7d64GDx4sSRo8eLB+97vfafTo0WbXiDN48GA5HA7Nnj1bf//73/Xuu+8qJSVFp512mq6//nqzOwAAiGADLr/8crMN6OCss87SmjVrdNhhh2natGkEaACw2ziUW2fLXpnp/3JJWqcjuyqXlslZWKHcwPJKDuUu98i5xK3ioFFrmbPbYzFHnkeZKlNpeVtLpUqXhPYJKC9VmTJVUdJeSy2xZdflyiGflpV4lbkyeGppqkpXZnYI56LFQw89pJkzZ+qPf/yjnn76aZ1wwglmF3TRRRddpL333luSZNu2rr76arNLVDjkkEN0991364EHHtC8efPYSRQAgCjCEDN02bBhw7Rs2TIde+yxysrKMssAgF2RXho0JaxJnkTJmx8nV7kk+eSt9X8dPG3SGueWN+QkTqU4g79OlStLKlvaGm+1BmSuTtZQ862rlRJTFHJ4gFc19VJZhrEjaEaZ2TEq1NTUKDMzU9ddd50WLFhgltFNw4YNCyz9EC2jznbG5XLpscce05///GctWrTILAMAgAhEeIZuu//++/Xpp5+yBhoA7DEO5db5AzR/8OUPr5yFTR3WXbLthqDRaB2lzs6UlpT61zhbWiZn4YJOpmx+h0avaiVlrjSf25bdYaODyHfZZZdp9uzZuuaaa8wSeuiSSy7RwQcfrHnz5pmlqHTGGWeoqKhIl1xyid59912zDAAAIgzhGbpt2LBhuuGGG1RUVKS3337bLAMAusyn4qRw65w55Exu+7NTKYmSty50nFmXpLv8UzeLiuVe4lTOdIfZQ5LkGJ8s1dcYI9laxTuVLKl2XfSub9amrKxMq1at0k033WSWsAuGDRuml156KepHnQVzu92aMGGCbrzxRrMEoBfZtm02AUC3EZ6hR8466ywlJyfr3nvvNUsAgC5zKPeGTGlJWseF9xv9YZfnmtSQfv5pnH6+ooSOO2J2kKoFhU6V5bvlTczRjHCj1FpDNnfwdQR25vSfw5ufFrK+WmW2Jat1Q4Focc899+jCCy/UEUccYZawixyOzoPbaHbxxRfrb3/7m7Zs2WKWAABABCE8Q4/98pe/1IoVK8xmAEB3pJcGdq4MXc+sRp7gKZnppbJXZoasOxaXn6yKLkybdEzPkVOSM3uGwscXqSo1ryNDgfM78hrUVKj2XUEtS2m1HjXV5e7knJHlgw8+UFVVlc4++2yzBPTI2Wefrb333luPP/64WQIAABGE8Aw9NmXKFK1du1afffaZWQIAdEuqSruylljIpgJGn/hcNYRb/yw+Vw22rYa80JgrtcSWHbS7ZsfrCL0GR15D6PNHUXAmSf/5z3+077776qSTTjJLQI+dfPLJevnll81mAAAQQQjP0GPjx4+XJPl80TRhBwAQq9566y0deeSRZjOwS4488ki99dZbZjOAXmJZltkEAN1GeIYe23///SVJX375pVkCACDibN68WSNGjDCbgV0yYsQI7pUAAIhwhGcAAADAHsKoFwAAIh/hGQAAAAAAABAG4RkAAAAAAAAQBuEZAAAAAAAAEAbhGQAAe1K5S5ZldfJwqdLo6itKkJVULPYwBgAAAPoPwjMAAPa4TFXYtuygR1NhrdKsBBU3tvdy5DXIrsuVI/hQAAAAAH2K8AwAgD7gyGtQRZZX7umMNAMAAAD6M8IzAAD6SOo1HjnrF2tZ6+gzc9qmryghZKpnQlFozLbzuk/FSZ1PE63MtmRlG5NGG4uVEDwSrrFYCcHTTEP6V8plJai4qG1KqkvXdXJO8/sBAAAAIhHhGQAAfSXeqWR5VeM1C/610uLyk9une673SPlpgXDLV5SguHzJsz64HidXuVrDrTi5kysC00QrssqU1hqgpc7OlJa4Q6aM+pYvljcxRzPiW9dpG7dYOW3ntpvkqU0zwjGv3CUparJt2Xaprp2dKS0pDVrHzadlJV45s2cwDRUAAAARjfAMAIB+yLeuNrQhPlcNdoNy49UeTBVWtH7dVrdVmi6pvFRlylRFSWrg8NSSCmWqTKXlktIXyJPo1eLlgTFuIUFX5dKy0HPLodzlHjmNwC0kGEt3tZ9fkhqXaXG9UznTic4AAAAQ2QjPAADohxx5HmWqTGmdTsn0qqZeSh7feTDlW1crJabIGdKaKleWVLvOJ8mhGdlOeUuW+adUhgRdPnlrJW9+XOjuoOPcMgfIhT6///xlS/1jz0JGsgEAAAARjPAMAIC+0uhVrTLlSjcLkpSq0sDOnM5AmGWue9Z1/lCsjWN6TmC9Nd/yxfJmeVpHmvmDOWdhU8juoP5H28i3zqVe45FzSakqmbIJAACAKEJ4BgBAH6mc75Y3y6X2yZWdc+Q1tIdoJcvkk1MpiW2jyDpyjE+W6muMkWLGaLX4GcpJ9Grx8mLNy/cqc3bbVfjP7a0zx5l1QfwM5SSWqbSIKZsAAACIHoRnAAD0AV9RgtKWOOW5pvPozL+TZvsOmaHrkrVOu8yfF1IvTmodmda6/lha0AL/ldlpKgsZ5eZQ7g2Z8ua7O23XkrTWzQf8Ol5PZ/zXVZbvZsomAKBfsG3bbAKAbiM8AwBgj2tfu6zt4d9JM/w0SEdeQ+sOmW3H+HfPbMjzj+Zy5DWoqbA2pL44u6m1nqrSth0yW+tpSzJVYZeGjnJLdylTkszRb+mlsldmqizDvF7j+E44pufIaW4mAABAH7Esy2wCgG4jPAMAYE9KL+1k7TBbdidBlCOvQXZdbiB0Si0xjgnaPTPQP6jeFqy1VpVbt/PnC6yrZpxX6uy6g4/3H1fa6VptksSUTQAAAEQPwjMAALDbhG4+AAAAAEQ+wjMAALAbVMrVNr2zs5FsAAD0AZs1zwDsBoRnAABgN2idAtrp9FAAAAAgchGeAQAAAAAAAGHEbnhW7pJluVRptktSY7ESrAQVN7Z+vbO+QBRYsGCBXnzxRbO536vM9u8C6Co3K5KvKCFkZ8PgR0KRr71jN97fbc/X/gj6nOiO8souPR86amho0CWXXKLt27ebJaBT77zzjubNm6cvv/zSLMWWxmIlGJ+FnX129iVfUYKspGIFfUIDAAD0C7EbngEISE1N1cknn6ypU6fqP//5j1nunxqL5V7ilDNRKpsb5petRI+azB0O13uk/Lju/dLY+ktnmipCz7UyWe5xRhj3XcpdsjJKzVZ8h3Xr1unss8/W0UcfrbFjx2rw4MFmF6BTRxxxhNauXatDDz1UN954o7Zs2WJ2iXqV2ZascYuVsz70s7A2o5ufXwAAADGK8AyAUlJSdMopp6i6ulonnHCC0tLSVFdXZ3brV3zLF8ubmKOKGzKl+sVa1tURYPG58mRJZUu7OvbLp+LpbnmzKmSbi6Cnl8pemSlv/jxGku0hb7zxhjIzM5WQkKCHHnpII0aM0Jw5c8xuwE7NmzdPmzdv1pVXXqlDDz1Ut956q7799luzW3QqdyltiVOe9Q2hO6DG56phZaa8+Wk9G0ELAAAQQwjPAEiS5s+fL8uyJEnPPfecJkyYoNmzZ6uxsT/+VuXTshKvnNkz5Eh3KVNeLV6+h0ZPNC7T4nqnPNeEWQI9vdRYIN2n4iRzemfrtNByl6yMMkllSguZMmUe0zaN1N/ecZpp6HTRymxLVnZrfNfJ1KxArbMpquY09X6isbFR5557rpxOpx577DHZtq299tpLV1xxhfbZZx+zO7BTxx9/vCZPnqyBAwfqs88+0xVXXKEjjjhCixYt0o4dO8zuUaVyaZmU5QkNztqkl8q2Q0O10OnpnX/WhPQxplmaU+aDP79CPqt20gYAANDfEJ4BkCT96Ec/0oknnqgBAwbo22+/lW3bevzxx3XUUUfpvPPO04YNG8xD+k75PLnrncqZ7pCUqgWFTnlLlnU+ddNU7lLaEilzdpgwzNA2wm1GZ794dqIyO07u5ODpnRXKVJnSsisDI9WkTFXYtkrTJalSLitOi7ObAsc0FdYqzXKpUg7NyA793nzraiV5VeMNPKNKA99PpVzj3EpeGTy1NFNakuYP6tJdylSZSoOmrHb3+9vTGhsblZWVpaOOOkqPPvqobNvWN998I0kaPHiwLrzwQvMQoEsKCgrU0tIiSfr222/10Ucf6aKLLtIPfvADPfDAA4FadPHJWys5k5xmoRP+sD6ttn26e1Oh5B5nhOtL0lQ6O+jzrd6ttLaArNyluPxkVYRMk2dkGwAAiHyWbdu22RgTyl2yMqSKkBEjrRqLlTBusXLapjjsrG+MsyxLP/zhD7X//vubJUSgzz77TGvXrpX5sTBkyBBt375dc+bM0V133aWqqipNmTIlpE9vqsxuXX+sbRplY7ESWkMjfyDlH/0Qlx9ImEJkBvX7rve3ryhBcSU5aqrLlaOtMTCCrF3IOQ0h12s+X7lL1tyU0PPLp+Ikf6DWMH1Z0OeRT8VJaVJ2stx1rs7P10GlXFaa1Hp9oX93Qc+T1/7sfcGyLI0cOVKffPKJBgwY0CHIsCxLe++9t4YMGRLSDnTH5s2b1dLSEvIZZ7WOuB0yZIiGDRumuLg4vfTSS0FHRTL/e7zmhvCfTwHmvY/U4TOiMrs1XAv6vAr+TPF/7iaH/Tzq8Nnd2fHm520UuO6661RdXa2qqiqzBKAXFBQUaNWqVbwHgU7w/ug6wrPObvDMG8id9Y1xlmXpvPPO09ixY81SVLIsq0OwFKy/17/LmjVrtHLlyg7nGDhwoAYPHiy3260FCxb0cXgWGgb5+X/Bcye3/1LW5V/CvuP9/d3n6ex6Ognv2tZMM56vQ78gzsImNeQp6JffSrmsUrnWp8g9rkYeu1TOogTF1XmM9dha/z7q21sC4V7w85ufdX3Isiwdf/zxqqurC4w0CzZgwAAddNBBOuqoo8xSzOrO+72t7+76b3eYx3blv6Zw7WqtdYVt2/rPf/6jbdu2hRzT9rzf//73NWrUKA0dOjTqwrMuBeRhPgt9QZ8x3xV+tX0etv2vBf9nWPvzftfx3/15G5kIz4C+RTgAhMf7oxvsWLXeYzuVaVeY7XYntZWZtsL1jXGS7KqqKrMZEai5udk+5JBDbMuybEm2JHvQoEH20KFD7auvvtr+7LPPbLsf/MybCp2B6+v4aH+fNhU6bSV67Cbj+A6+6/293mM75bQ9681Cmwo7U7IzV7Z+ldXxWiqyZCur9Svj+Sqy9J3XGTh+ZWbreZpsT6LT9qxvsj2J7c/ddi1S0PMZ1+c/1v91l/+OekHb62rr1q32bbfdZo8aNcoeMGBAyM934MCB9ttvv20eCnTJ/fffH/KaGjhwoC3JnjRpkv3888/btm3bBQUF9pQpU8xDI1rI508HQZ8hYT4Lg4/v7FydtdnGZ7Wz0P8p01nf4Lb+9Jm0O0Xj6wqIJNdeey3vQSAM3h9dF7trnsU7laxaeTtZh8O/BlCKurJCCBAtHn74YW3atEm2bWvw4MEaMmSIrrjiCm3atEnz58/vJ1Nz/RsFKCt4TbH2tXWcKpM7eHH93SF+hnISvXLP78qC1q3rj620gzYR8K85FI4zySnV16jzsWd+qbMzpSWlci0ta13bzKEZ2dLi+fO0uN6plLYPq/JSlbWup9Y+pdWr0Kf3r6NWtrS4fdOFkHrf2nvvvfXHP/5RGzdu1K233qpRo0ZpwIABgVFHN954o3kI8J1aWlr0pz/9SbZta9CgQZKkiRMn6tlnn9XLL7+sqVOnmodEjdRrPHIucXe+7ljr+pEpTknOFDk73Bd1Z820UI68Btm2raadrkm5889HAACA/iJ2wzOlypXllXtcx53n0vK9yrwhuqYMADtj27auueYaqXXdH7fbrU2bNulPf/qTDjjgALN739nZzpfxM5STqJ38ktZTDuXWVShzSVqHXeX8u1emqSzRowVBUzZr1wXvLhc6fdL8BdWR52nfUKBN646Zgd04Wxf6L1vSHpQ5xifLu6Ssk8X+g3/59W8gYAZzjuk5ci5xB2260P/svffeuuiiiwIh2oEHHqjm5mbdc889ev/9983uwE49+uijamxslG3bSk5O1lNPPaX//Oc/OuWUU8yu0Sc+V54sb8eF/xuLlZBRJmdhhX/adtv/KJje/jnnK0rr1ueEf6fN4PuqoJ2R2/5nQXCQVz4v9PMRAACgn4rh8ExKLWnb1S5oy3Vj0XEgFjz22GPatGmTrrzySr377ru64YYb9L3vfc/s1ucq57s7CYvaOJR7Q6ZUv1jLOhthsUtSVWrbqkh2Ky748yKjVp71tuzA+jypKl3vkfLjAn3SVKGmQqe0pNT/C2XbL6jjLCUU+VrP3RrOhf0cSpUrS1Lw957uUqYUOnIsvbR1d7y2a0yTVjbJkyiVLQ0K51qDxpDz9VNtIdqmTZt05513auTIkfJ4PGY3ICzbtjV//nwdd9xxevLJJ/XKK69o2rRpZreollpiy16ZHPTZ0P45074mmUO5daGfc3H5kqcbayI68hpUkVUWdF/lX4uy7Tn8df/nn2VZspa6VJFlngUAAKD/id0NA7BbWJbVx4vHY3f4xz/+oWnTpmnkyJFmqQN+5tGgG4uI95Kuvq62b9+u0tJSuVwuDR482CwDHbz55pvy+Xw67bTTzFIHLOyOPYHXFdC3WBAdCI/3R9fF9MgzAH7nnHNOl4IzRInGZVpcnylPPwnOumPw4MH61a9+RXCGLjvyyCO7FJwBAAAA4RCeAUAMqcxum67VtqEBAAAAAGBnCM8AIIaklvh3J2VdRwAAAADoGsIzAAAAAAAAIAzCMwAAAAAAACAMwjMAAAAAAAAgDMIzAAAAAAAAIAzCMwAAAAAAACAMwjMAAAAAAAAgDMIzAAAAAAAAIAzCMwAAAAAAACAMwjMAAAAAAAAgDMIzAAAAAAAAIAzCMwAAAAAAACAMwjMAAAAAAAAgDMIzAAAAAAAAIAzCMwAAAAAAACAMwjMAAAAAAAAgDMIzAAAAAAAAIAzCMwAAAAAAACAMwjP0WEtLiyRpwABeRgCAyGdZVuDfNmB3aWlpkWVZZjMAAIggpB7osY8++kiS9L3vfc8sAQAQcUaOHKmPP/7YbAZ2yf/+9z+NHDnSbAYAABGE8Aw9tnbtWknSUUcdZZYAAIg4Rx11lBoaGrR161azBPRYfX29nE6n2QwAACII4Rl67Omnn9aUKVM0ePBgswQAQMT58Y9/rIEDB+qpp54yS0CPfPLJJ/rnP/+pk08+2SwBAIAIQniGHistLdWsWbPMZgAAItKQIUM0e/ZsLVmyxCwBPXL//ffrsMMO089+9jOzBAAAIgjhGXrkpptukm3bmjNnjlkCACBiXXDBBXr00UdVXV1tloBu2bJli4qLi/WHP/zBLAEAgAhDeIZuW716ta644gpde+21TNkEAESVn/zkJ/r1r3+t3Nxcdt7ELrn00kt1wAEH6PLLLzdLAAAgwhCeoVt8Pp/OPfdcuVwuXXDBBWYZAICId9ttt2nr1q0655xzzBLQJddff70WLVqkv/zlL2YJAABEIMIzdFl1dbVOOeUUxcfH64EHHjDLAABEhWHDhumhhx7Sf/7zH6WlpWnTpk1mFyCs3NxczZs3T6WlpZoyZYpZBgAAEWjAjBkz9PLLL5vtQMCGDRt06aWXaurUqfrZz36mxx9/3OwCAEBUSUxM1PPPP68tW7YoMTFRt9xyi7Zv3252AwIeeeQRpaSk6KGHHlJFRYUyMzPNLgAAIEJZZ5xxhr1ixQpNmjRJp556qpKSknTQQQfJsiyzL2LIF198oXXr1umFF15QZWWlUlJSNHfuXM2cOdPsihhjWZaqqqr4v+nYrXhdoT8rLi5WUVGRtmzZojPOOEMnnHCC4uLiNHToULNrVHj//fdVW1ur1NRUs4Qg27dv16ZNm/Tf//5XlZWVampq0kUXXaTrrrtOBxxwgNkdQB8pKCjQqlWrdO2115olIOZVV1dr1apVqqqqMkswWLZt22vWrNGyZcv0wgsvqKGhQZ988gmL5Ma44cOHKz4+XieeeKIyMjI0bdo0swtiFCEH9gReV4gEpaWleuKJJ7R69Wpt2LBB33zzjdkFMWTQoEEaM2aMJkyYoFNPPVVnnXWWRo8ebXYD0McKCgp03XXXmc0AWk2ZMoXwrAss27ZtsxEAwiHkwJ7A6wroH9auXasJEyZo0KBBuvPOO/Xb3/7W7AIAABBz2DAAAAAAkqT8/HwNGjRIO3bs0DXXXKMdO3aYXQAAAGIO4RkAAAD06quv6umnnw4EZp988omWLFlidgMAAIg5hGcAAADQH//4Rw0Y0H5ruH37dl177bWsgwsAAGIe4RkAAECMe+655/Sf//xHzc3NIe0ffPCB/vGPf4S0AQAAxBrCMwD93tq1a3XppZcqKSlJQ4YMkWVZPHbzY+DAgRo7dqyysrL0xBNPmD8CAFEuLy8vMOps0KBB2muvvaTW0WdXX3212F8KAADEMnbbBNAtVi/vipiXlyePx6PJkycrIyNDRx99tPbee2+zG3ZRS0uLmpqa9Mwzz+jhhx/WmWeeqbvuukujR482u+4Rvf26AtCuvLxcGRkZGjhwoAYOHKghQ4Zo27Zt2rFjhwYMGKDt27dr6dKlmjlzpnkoAABATCA8A9AtvRlyzJ49Wy+++KLuvPNOTZ8+3SxjD3nttdd08cUX68MPP9STTz6pI444wuyy2/Xm6wpAqMTERL3++uv64Q9/qKuuukpr1qzRSy+9pPPPP1/XXnut3nrrLY0fP14NDQ2yLMs8HAAAIOoxbRNAv5SXl6cXX3xRzz33HMFZL5swYYKqq6s1duxY/epXvzLLAKLIQw89pCOPPFIvvviiamtrNWvWLNm2rYEDB8rlcunNN9/UAw88INu29fjjj5uHAwAAxATCMwD9ztq1a+XxeHTnnXcqISHBLKOX/O1vf9Orr76qu+++2ywBiBKpqalatmyZTjrppEBbS0tLYP2zAQMGyOVyqaGhQYcffnjQkQAAALGD8AxAv3Pfffdp8uTJjDjrY4ceeqguueQSLV682CwBiBLDhg0zm0LCszYDBgzQhAkTQtoAAABiBeEZgH7n2WefVUZGhtmMPnDmmWdq9erV+uCDD8wSgCjVWXgGAAAQy7gzAtDvrF+/XkcffbTZjD6QmJgoSWpqajJLAKJUc3OzBg4caDYDAADELMIzAP3Ot99+q7333ttsRh8YMmSIJGnbtm1mCUCUYuQZAABAKO6MAAAAEEB4BgAAEIo7IwAAAAQQngEAAITizggAAAABhGcAAAChuDMCAABAAOEZAABAKO6MAAAAEEB4BgAAEIo7IwAAAAQQngEAAITizggAAAABLS0tGjhwoNkMAAAQswjPAAAAEMDIMwAAgFDcGQEAACCA8AwAACAUd0YAAAAIaG5uJjwDAAAIwp0RAAAAAhh5BgAAEIo7IwCRq9wly7I6fyQVy2f2/06Vqiw327qh3CXLcqnSbG/TWKwEK0HFjWaha3xFCcb35VNlefe/SwDYGcIzAACAUNwZAYhwmaqwbdkhjyZ55FZctwK0SrmsNJWazbtTfK4a7AblxpuFrnHkNciuy5VDkuRTcVKc3OvMXgCwawjPAAAAQnFnBCAKOZS73CNn/WIt6+EoLwCIVYRnAAAAobgzAhCdvDXyGk2V2eb0zrYplP5RZ2WSyjIsWdntEy9Dj+n5lEvJnLZZKZdlyVVUrATj/L6ihE6nn7ZP22wddVYvefPjQvrs7Hp9RQmysotVnOSvJxR1fVwegNhBeAYAABCKOyMAUcin4rllUpYnMEXSV5SgtFqPmoKndiZ65Z5eLJ9SVWpXKFNS5kpbdklq67RIS2mqaJ8OujJZ7nG7GKAZyvJr5Gk9f0WWV+5xwc9Zocx6t9I6hFwO5dY1yZMoOQubWqdydvF6l7hVc4O/3pDnnwAKAMFaWlo0cOBAsxkAACBmEZ4BiHBlSjM3C7Di5E6uaA3B/ELXC5Mkh2ZkOwNfddC4TIvrM1URdA6ll/oDrvlhtwToNmfhArU9Q+rsTEmZ8gRCLadSEoM670yXrzdTrvSgLwHAwMgzAACAUNwZAYhwwRsG+EdjKdGjpuAQKVjQDp1x+ebEziDeGnk7CebSlpgdd03y+N00+qur15uYop1EhgBAeAYAAGDgzghAFHEot84/1dHcaTOwjlhGrTzr/WFbU2H4GMm3rjbMTp5t0zr7l0i7XgD9F+EZAABAKO6MAESZVJWuzJRC1grzaVmJ178+mN0QWAfNWxd+5JljfLKkWnl34/pme1KkXS+A/ovwDAAAIBR3RgCiT3qpKrIkb/48Ba/2FRyW+YoSjCmN/vXFate1Bm7pC4I2FGjj3yGzf+xS6ZAzOeh76vfXCyBSEJ4BAACE4s4IQFRKvcYjp8qUllQsX9t0ziVp7eudleSoaWWmVL9YyxoV2EDAmx8nK3BMkzxyKy6whliaagubvmOXyo7rjlmWJVe52W/Xpc7OlJakybJcquzx9QJAqObmZsIzAACAIJZt27bZCADhWJalqqoqTZkyxSztNr3xHOi63vh59MZzAOiaKVOmaOrUqbr22mvNEgAAQEzifysCAAAgoKWlRQMHDjSbAQAAYhbhGQAAAAJY8wwAACAUd0YAAAAIIDwDAAAIxZ0RAAAAAgjPAAAAQnFnBAAAgADCMwAAgFDcGQEAACCA8AwAACAUd0YAAAAIIDwDAAAIxZ0RAAAAAgjPAAAAQnFnBAAAgICWlhYNHDjQbAYAAIhZhGcAAAAIYOQZAABAKO6MAAAAENDc3Ex4BgAAEIQ7IwD9zoABA9TS0mI2ow80NzdLrT8TALGBkWcAAAChuDMC0O8cdthhampqMpvRB9p+DocccohZAhClCM8AAABCcWcEoN85+eST9cwzz5jN6ANPPvmkjjjiCP3gBz8wSwCiFOEZAABAKO6MAPQ7mZmZevjhh/Xaa6+ZJfSyu+66S1lZWWYzgChGeAYAABCKOyMA/c7pp5+uM888UxdffLFZQi+67LLL9OWXXyo/P98sAYhihGcAAAChuDMC0C/ddddd+vDDD3X66afr3XffNcvYwy677DLdcsst+tvf/qZhw4aZZQBRjPAMAAAgFHdGAPql0aNH68knn9TWrVs1fvx4zZs3T6tXr9bWrVvNrtgNmpubtX79et1xxx1KSEjQww8/rMrKSp1++ulmVwBRjvAMAAAgFHdGAPqtI444QlVVVfJ4PHrqqad03HHHaejQobIsi8dufgwaNEhHHnmkiouLNXPmTHm9XoIzIEa1tLRo4MCBZjMAAEDMsmzbts1GAAjHsixVVVVpypQpZmmP++CDD9TU1KRt27aZJeyiAQMG6JBDDumzXTX78nUFINTBBx+sv/71r5o1a5ZZAgAAiEmEZwC6hZADewKvK6D/GDVqlBYuXKgZM2aYJQAAgJjEtE0AAAAENDc3s+YZAABAEO6MAAAAEMCGAQAAAKG4MwIAAEAA4RkAAEAo7owAAAAQQHgGAAAQijsjAAAABBCeAQAAhOLOCAAAAAGEZwAAAKG4MwIAAEAA4RkAAEAo7owAAAAQQHgGAAAQijsjAAAABLS0tGjgwIFmMwAAQMwiPAMAAIDUGpzZts3IMwAAgCDcGQEAAEBqDc8kEZ4BAAAE4c4IAAAAkqTm5maJ8AwAACAEd0YAAACQGHkGAADQKe6MAAAAIBGeAQAAdIo7IwAAAEiEZwAAAJ3izggAAAAS4RkAAECnuDMCAACARHgGAADQKe6MAAAAIBGeAQAAdIo7IwAAAEiEZwAAAJ3izggAAAAS4RkAAECnuDMCAACAFBSeDRw40CwBAADELMIzAAAASIw8AwAA6BR3RgAAAJAIzwAAADrFnREAAAAkSc3NzRLhGQAAQAjujAAAACAx8gwAAKBT3BkB6BbLsmTbttkM9Fjb68myLLMEoJcRngEAAHTEnRGAbtlnn320ZcsWsxnosbbX0z777GOWAPQywjMAAICOuDMC0C2jRo3SRx99ZDYDPfbhhx9Kkg488ECzBKCXEZ4BAAB0xJ0RgG4ZO3asmpqazGagx5qammRZlo444gizBKCXEZ4BAAB0xJ0RgG45+uijVV9fbzYDPVZXV6ejjz6aX9aBfoDwDAAAoCPujAB0y/HHH6+XXnrJbAZ67KWXXtKkSZPMZgB9gPAMAACgI+6MAHTLlClT9OGHH+qVV14xS0CPPPfcc5oyZYrZDKAPEJ4BAAB0xJ0RgG45/PDDdeKJJ2r58uVmCei2iooKffrpp0pLSzNLAPpAW3g2cOBAswQAABCzCM8AdNtZZ52l0tJSsxnotgceeECzZ8/WAQccYJYA9AFGngEAAHRk2bZtm40AsDNffvmlDj74YN19990677zzzDLQJW+++aaOOuooVVZW6vTTTzfLAPrAK6+8okmTJmnLli0aOnSoWUYEW7dunWpqarRx40Zt3brVLCOGDBo0SKNHj1ZSUpKOP/54swwA6AThGYAeufzyy/XEE09o7dq1Zgnokjlz5mjdunV64YUXzBKAPvLSSy/pRz/6kbZu3aq9997bLCPC7NixQ7fccovuv/9+vf766zr44IM1duxYgtEYt337dr333nvy+Xw6+OCDlZmZqQsvvFBxcXFmVwBAK8IzAD3y6aefKi4uTtdcc40uu+wyswzs1IsvvqiTTz5ZFRUVSk1NNcsA+si//vUv/fjHP9a2bds0ePBgs4wI8tBDDykvL0+S9Lvf/U4zZsyQ0+k0uyGGffDBByovL9e9996rl19+WQsWLNBVV11ldgMAEJ4B2BV/+ctfdMkll6iuro4bcnTLiSeeqHHjxqmkpMQsAehD//znP/WTn/xEO3bsYNOACHbNNdfoT3/6k6666iotWLDALAMd3Hvvvbrkkks0bdo0PfLII2YZAGIe4RmAXXLGGWfoyy+/VFVVlVkCOpWbm6sHH3xQa9as0ahRo8wygD60atUqTZkyRS0tLbIsyywjArQFZ0uXLtWsWbPMMhBWQ0ODZs+erfj4eK1YscIsA0BMYyslALvk7rvvVlNTk+bMmWOWgA7uvPNO3XzzzVq0aBHBGdAPtYVmBGeR6aGHHiI4Q48lJCRoxYoVeuWVVwJTfgEAfoRnAHbJmDFjVFpaqr///e/caGGnSkpK9Ic//EF33HGH0tLSzDKAfqClpUUDBnB7GIl27NihvLw8XXXVVQRn6LH4+Hjdfffd8ng8evHFF80yAMQs7o4A7LIf//jHeuyxx3TzzTfrwgsvNMuA7rzzTp133nm68cYbeY0A/RjhWeS65ZZbJIk1zrDLzjjjDP3yl79UcXGxWQKAmMXdEYDdIjU1Vc8884yWLl2qX/ziF3rvvffMLohRubm5gRFnl19+uVkG0I8QnkWu+++/X7/73e/MZqBHLrjgAj322GN65513zBIAxCTujgDsNj/96U/1r3/9S19//bV++MMfspNijHvxxRd14okn6sEHH9Tjjz/OiDMgAhCeRaZ169bp9ddf14wZM8wS0CNTpkzR4YcfrqeeesosAUBM4u4IwG4VHx+vqqoq/eEPf9B5552nn//853r++efNbohib775pubMmaOTTz5Z48aN05o1a1jjDIgQhGeRqaamRgcffLCcTqdZAnrshBNO0H//+1+zGQBiEndHAPaIa6+9VvX19Ro5cqROOeUUTZ06Vffdd582b95sdkWUqKio0DnnnKOjjjpK69atU0VFhUpKSthVE4gghGeRaePGjRo7dqzZDOySsWPHasOGDWYzAMQk7o4A7DFHH320SktLtWbNGiUmJsrtdmv48OGaNm2a5s+fr5UrV8rr9erzzz9XS0uLeTj6Idu29fXXX6upqUnPPvusbrnlFv3yl7/UyJEj9Ytf/ELNzc2qrKzUCy+8oNTUVPNwAP1cc3OzBg4caDajn9u6dauGDh1qNgO7ZJ999tHWrVvNZgCISYRnAPa4CRMm6I477tAnn3yiiooKJSUl6cknn1RmZqYSEhJ0wAEHaODAgbIsi0c/fwwYMED77beffvCDH2jatGm69957NXz4cN1222369NNP9fDDD+v00083XwIAIgQjzwAAADqybNu2zUYA6C3vvfeePvzwQ23evJnRZxHAsizts88+OvDAA3XEEUfwSzYQZR555BFdcMEF+t///meW0I9dd911qq6uVlVVlVkCeozXFQC0IzwDAACAJOnhhx/WRRddpA8//NAsoR8j5MCewOsKANoxZAAAAAAS0zYBAAA6xd0RAAAAJMIzAACATnF3BAAAAInwDAAAoFPcHQEAAEAiPAMAAOgUd0cAAACQCM8AAAA6xd0RAAAApNbwbODAgWYzAABATCM8AwAAgMTIMwAAgE5xdwQAAACJ8AwAAKBT3B0BAABAktTc3Ex4BgAAYODuCAAAABIjzwAAADrF3REAAAAkwjMAAIBOcXcEAAAAifAMAACgU9wdAQAAQCI8AwAA6BR3RwAAAJAIzwAAADrF3REAAAAkwjMAAIBOcXcEAAAAifAMAACgU9wdAQAAQCI8AwAA6BR3RwAAAJBaw7OBAweazcB3K3fJsqzOH0nF8pn9u6uxWAlWgoobJalSLsuSq9zs1D2+ogTjWl2qNDvtipBrBgBEMsIzAAAASIw8wy7LVIVtyw55NMkjt+J2R4AWkKpS21ZputneVf7wLa4kR01B19pUWKs0wi4AQCe4OwIAAIAkqbm5mfAMu5lDucs9ctYv1rJ+EkpVZqepLNGjprpcOYLaHXkNqsjyyj19dwZ9AIBowN0RAAAAgD3HWyOv2dZYrITgKZPZxoRJo+5aHlw0p236VJwUPP1yZ6PHKlW6RMq8ITQ4a5NaYssODtXM6+zkWs3pnwlFRvS2PHhKa8drq8zu6rUDAPoK4RkAAACAPcSn4rllUpZHufGtTeUuWeMWK2d90NTO2rSgUKpSrnFuqbCptV4h5bs7BnCtKrPj5E6uCJp+qfCjxxq9qpVTKU6z0Bn/dSSvDJqGujJTWpIWCO58RQmKy5c8bd/Leo+UHxcU7HnlLkkJTA9tKpTc49rWVvOHfmlqv3Z7ZbLc4wjQAKC/ITwDAAAAsBuUKc0cpWW1BlslqYFelUvL5CysaA/T2qZ2LnGruFHyFblVluhRRV7b+K9Ula7MDBwfyidvbWiLI68hdPRYB8lyBp57ZzpZWy3dpfYr8WlZiTf0e4nPVYNxTPAoN8f0HDlVK2+jpMZlWlyfqYqgvxull/qnjs7frVsXAAB2EeEZAAAAgN0geMOAJnkSJSV61BQcDrWGXd78uNCQbVz7yDJvnVdKdoaGX84UdT5YzKHcG/yjwbo+7bE1vOqy4GmhaSoLtHtVUy8ljw8f02lno9y8NfJ2EjimLTE7AgD6GuEZAAAAgN3Mody6CmXWmztt+gMnZ2BKZvCjIWg0WjeklwYFdl65x+0kRIt3Klle1YSbA9pYrASrbVqlf221wOi51imk4cbAdZdvXW2YHUrtkJF6AIC+R3gGAAAAYA9onW5Z71ZaYBF9p1ISW0eXheFMckq13tA1yzrbdKADh3Lr2kO0xcs7W/UsVQsKnSqb2/maaJXz3fImto5yKy9VWVu41RZmNXrVPkvU/73UruvsTN/NMT65B6PgAAB9gfAMAAAAwJ6RXqqKLMmbP691NFf7NMv2RfXbdqz0j/hy5HmUGRK4VcqV0T5ZMlTrlMrgHTAbl2lxvVM50zufTtl2/tARcf5rSFvilGd58HppweGWfwOB9hDPoRnZzqDvTYHr6bDjZmfSF/hHyoVsbuAf7dal4wEAvYbwDAAAAMAek3qNR06VKa0trEovlb0yU2UZ7et8xeUnq8IulX98V6pK7QolB9ZFS5MKPeHXPKurUGZgzTP/+mnJK3c2BdS/EUBFsltxQWuN+a8h6Lj00tbdMdvXO9NK/1puZUtbo8C8BjUV1gatWxanxdlNaghsdrAzDuXWNcmj4OtIU21hV48HAPQWy7Zt22wEAABA7CkoKNCqVatUVVVlltCPXXfddaqurubnht2K1xUAtGPkGQAAAAAAABAG4RkAAAAAAAAQBuEZAAAAAAAAEAbhGQAAAAAAABAG4RkAAAAAAAAQBuEZAAAAAAAAEAbhGQAAAAAAaFfukmUlqLjRLLTxqTjJkpVULJ9ZAqIQ4RkAAAAAAOhg8XSXKs1GSb6iNC2W02wGohbhGQAAAAAAMCQrJ7tWpeVmu0/LSpKVk222A9GL8AwAAAAAAHTgnJ6j2qXG2LPyeXInuzQjtFWSVJltybLaHqHTPn1FCbKSilVZlBDUxxjZ1lishEDNkquoWAnGeXb2HMCeQngGAAAAAAA6ip+hnFp3aHi1tEyZs1ODewXWQEur9ajJtmXbtpoKJfc4I9yqd8utCtm2LdtukiexTGnZbfFZpVzj3FJhU2u9Qsp3yxs4uIvPAewBhGcAAAAAAKATDs3IlhYvb9sWoFKlSzLlSje6NS7T4nqnPMtz5WhtcuRVyJPoDTpWkjLlyQv00Ixsp1TrlU+Sr8itskSPKgL1VJWuzGw/tMvPAex+hGcAAAAAAKBTjuk5Usky/66a5aUqy3LJHHcmb428SpYzPrjRH45569rHjikxJew2A946r5TsDARjkiRnUP+uPgewBxCeAQAAAACAzsXPUI4Wa1ljuCmb4fVGqNUbzwEQngEAAAAAgDDapm4Wdz5lU20jxGrlDVl7zCdvreRMCjfWLJQzqX0KZ4C3pn3Ns93wHEBPEZ4BAAAAAICwHOOT5c13dz5lU62j0xK9ck8vDoRfvqI0ueudypkeMhEzLEeeR5n1bqUVta+v5sooa++wG54D6CnCMwAAAAAAEF66S5nSTqZsOpRbZ6si2a04y5JlWYrLlzzrG5QbskbZzqSqdL1Hyo+TZVmyrDSp0BO0RtrueA6gZyzbtm2zEQAAALGnoKBAq1atUlVVlVlCP3bdddepurqanxt2K15X6Bcai5UwrkYeu7TzEW9AL2HkGQAAAAAA6FO+ogRZlkuV7S0qnu6WN9xUUaAXEZ4BAAAAAIA+5chrUEVWmdJap2RaVpzcyRWyS4jO0PcIzwAAAIAINmjQIG3fvt1sBnbJ9u3bNWjQILMZ2KNSS2zZdtCD4Az9BOEZAAAAEMFGjx6t9957z2wGdsmmTZs0ZswYsxkAYhLhGQAAABDBkpKS5PP59MEHH5gloMdqamqUlJRkNgNATCI8AwAAACLY8ccfr4MPPljl5eVmCegRr9ertWvX6pRTTjFLABCTCM8AAACACJeZmal7773XbAZ65J577tHxxx+vlJQUswQAMYnwDAAAAIhwF154oV5++WUCNOyy+vp63Xzzzbr44ovNEgDELMIzAAAAIMLFxcVpwYIFuuSSS9TQ0GCWgS676KKLdMYZZygzM9MsAUDMIjwDAAAAosBVV12ladOmafbs2WpsbDTLwHc6++yztXHjRt19991mCQBiGuEZAAAAECUeeeQRxcfH6+STT9aKFSvMMtCp+vp6TZ06VatXr9by5cs1evRoswsAxDTCMwAAACCKrFixQueee67OPPNMnXXWWaqurja7AFLrrpq5ublKSkrSiBEj9OKLLyopKcnsBgAxz7Jt2zYbAQAAEHsKCgq0atUqVVVVmSVEoBdffFHFxcV67LHHdPjhh+uEE07Q2LFjtc8++5hdEUO2b9+uTZs2qaamRmvXrtXxxx+viy++OGrXOCsoKDCbABh4n3w3wjMAAABIhGdR65133tFTTz2l//73v9qwYYO2bt1qdokZGzdu1EcffaSJEyeapZgxaNAgjRkzRklJSTrllFOUkpJidokqbZ9rAMLj3/3vRngGAAAAifAMMeCnP/2pqqqqxK9AsYPPNSA83h9dx5pnAAAAAKLe5s2b9eKLL0qSHnvsMbMMAEBYhGcAAAAAot5tt92mlpYWSZLb7TbLAACERXgGAAAAIKp99dVX+vOf/6zm5mapdR24ZcuWmd0AAOgU4RkAAACAqHbrrbdqx44dga+bm5uVl5cX0gcAgHAIzwAAAABEra+++ko33nijtm3bFmizbVsbNmxg9BkAoEsIzwAAAABErdtvv13bt283m7Vjxw5dccUVZjMAAB0QngEAAACISsGjzvbbb79Ae9ufm5qa2HkTAPCdCM8AAAAARKU77rhDmzdvliSddNJJmjhxoiTpd7/7nfbaay81Nzcz+gwA8J0IzwAAAABEnW+++UbFxcX6xS9+oVdffVVPPvmkRowYIUnyeDzatGmT8vPztXHjRj3yyCPm4QAABBCeAQAAAIg6a9eu1VNPPaXy8nIde+yxZlkHHnigbrrpJm3YsEFbt241ywAABBCeAQAAAIg6kyZNCkzTbGNZVsjXkjRy5Eide+65ZjOw233++edatWqVbr/9dv3mN7/RrFmz9LOf/UzHHXecjjzySB100EHae++9te++++r73/++nE6nTjjhBJ122mn65S9/qdzcXP39739XTU2NduzYYZ4ewB5k2bZtm40AAACIPQUFBVq1apWqqqrMEhAVfvazn+nZZ58VvwLFjr78XFu7dq1WrFihNWvW6LXXXtNbb70lSUpISNCECRM0cuRI7b///hoxYkTgsf/++2vHjh364osvOjx8Pp/q6ur07rvvSpKOOeYYJSUlafLkycrIyNDBBx9sXAGwc335/og0hGcAAACQuIlGDJg2bZqeeeYZwrMY0tufa//973/12GOPacWKFaqrq1NycrJOPPFEHXPMMZowYYImTJigoUOHmod1y0cffaS1a9eqrq5Oa9eu1dNPP6333ntPp5xyijIyMpSeni6Hw2EeBnTQ2++PSMa0TQAAAAAxobNpm8DucPvtt8vpdOrYY4/V008/rbPPPlv19fWqqanRX//6V/3ud7/TCSecsMvBmSQddNBBOvXUU3XppZfqvvvu06ZNm1RVVaVjjjlGt99+u+Li4jRlyhStWLHCPBRADxGeAQAAAIgJhGfY3W699VYdccQRmj9/vrKysvTmm2/qP//5j+bOnaujjz7a7L7HTJkyRTfffLMaGxv18ssv66ijjtKZZ56pH//4x+wmuzPlLlmW1fkju9LsvUt85ZXymY2IGIRnAAAAAAB0w80336zDDjtMf/7zn3XBBRdo06ZNmjt3rsaNG2d27XWTJk3SwoULtX79ek2YMEGzZ8/WCSecoOXLl5tdIUnKVIVtyw55VChzSZoSinZP3OUrSlDcXK/ZjAhCeAYAAAAgJjDyDLvqgw8+0IwZM3TFFVfooosu0rvvvqsrrrhCe++9t9m1z8XHx+uvf/2rfD6fJk2aFLhudEWqFhQ65S1ZxmgxSIRnAAAAAGIF4Rl2xWOPPaaUlBR9/PHHqqmpUX5+vgYPHmx263fGjh2r2267TcuXL9f999+vKVOmyOtlFFS3NRYrYSfTOn1FCSHTPttGrfmKEhSX75Xq3YqzElTcGHIYIgThGQAAAICYQHiGnrrqqqs0ffp0nXvuuXrhhReUmJhodun3zjzzTNXU1Gj//fdXSkqKHnzwQbML2jQWKy3fK2f2DDnUujbaOLeSV4ZO6wwEaOUuxeUnt0//XO+R8tNU3Cg58hrUVOiUEj1qshuUG288FyIC4RkAAACAmEB4hp64+eabdcMNN+jRRx9VYWGhWY4oY8aM0WOPPaa5c+fqnHPO0XPPPWd2iUFlSjM3Cxjnlgqb1JDnkCRVLi2TsipUmt52TKpKV2ZKS0pVKcm3rjb4hFJ8rhoIyqIK4RkAAAAAAJ34+9//rtzcXP3tb3/TjBkzzHLEuvrqq3XhhRfqrLPO0tq1a81yjOlswwA7EJxJPnlrJWeSM/SwdJcyVStvo+TI8ygzKITbXRsNoP8gPAMAAAAQExh5hu4oLy/Xr3/9a9100036zW9+Y5Yj3h133KFTTz1VZ511lt5//32zjO/S6FX7eLNUlbaGbk2FTnnz4wjRogzhGQAAAICYYFmWhg4dajYDnSooKNAll1yi/Px8sxQ1HnzwQY0cOVILFiwwSwhwyJkseeuMTRa8NfIqWU5jaqYjr6E9RGO3zqhBeAYAAAAgJjDyDF11//3367XXXovq4KxNbm6u7rzzTr355ptmCa1SZ2dKS9LkKm9rqZQro0zKcik1sNOmS+37b/q0rKR9wwHH+GSpvkbscRq5CM8AAAAAxATCM3SVx+NRfn6+xowZY5aizvTp0/WTn/xExcXFZglt0ktlr/eoNqNtU4E0lWVVyC5JlVpHm1VkBW88ECd3ckX7umnprsCaaO0BHCIJ4RkAAACAmGBZlmzbNpuBEA888IB8Pp/y8vLMUtTKzc3VokWLtGHDBrMU3dJLZdul8kdg3yE+Vw3Bmwq0BmdtUkuMTQdC6u1rorXv2IlIQngGAAAAAECrhoYGnXDCCTrggAPMUtTKyMjQXnvtpYaGBrMEgPAMAAAAQKxg5Bm6oqGhQQkJCWZz1EtISCA8A8IgPAMAAAAQE1jzDF0Rq+GZ0+kkPAPCIDwDAAAAEBMIz9AV69ev17Bhw8zmqDdo0CD9+9//NpsBEJ4BAAAAiBVM20RX1dTUmE1Rr6amRl988YXZDIDwDAAAAECsYOQZumrjxo1mU9T7+OOPtc8++5jNAAjPAAAAAMQSRp6hKzZs2GA2Rb2PP/5YQ4cONZv7r3KXLMvq5OFSpdm3K8oru3FcpVyWJVe52Y5oRXgGAAAAICYw8gxdtWbNGn388cdmc9R6/PHHNXDgQB1wwAFmqZ/LVIVtyw56NBXWKs1KUHGj2Xcnyl2yMkrNViCA8AwAAABATCA8Q1cdcsghKi4uNpuj1jXXXKPjjz9eAwZEfkTgyGtQRZZX7unF8plFoIci/50BAAAAAF3AhgHoqqysLP3lL3/R559/bpaiTmVlpV5//XWdeOKJZilipV7jkbN+sZYFRp/5VJwUZnpnuUtWRpmkMqUFT8XsZFpoQpERx60rVkJQ3ZzGWZltPmfoiDhfUcLOz29cQ4c6eg3hGQAAAICYYDHyDF00efJkjRo1SllZWWppaTHLUePjjz/WnDlzdN5550XXZgHxTiXLqxqv/8vK7Di5kyuCpndWKFNlSsuulNJLZa/MDEwBLU2X1FishIxaedYHTwd1ypufFhJ+leXXyNN2zpWZKstoD8d8RQlKq/WoKfCcTfIkBo2IK3cpLj+5fdrpeo8UdH5fUYKsDAVNS61Qcn4cAVofITwDAAAAEBMsRp6hiyzL0oMPPqinn35al156qVmOCt98841OO+00DRkyRIWFhWY5qqSW2LJLUoNb5MoK+tIUn6sGu0G58e1Njuk5cgb3kZS5slSBs6aX+qeLzvdvO+DIa5BdlytHoLdDM7Lbz+BbVxv4s2Q+p0/LSryh51eqSldmyps/rxsbG2B3ITwDAAAAAMBw/PHHa+nSpfrLX/6iu+66yyxHtJaWFs2aNUubNm3S888/r/3339/sEpWCp0mmLTGrnfHvqmlZlqxxbrUOZGvlVIqRpjmTnFKtN3SttaCpl3H57Wdw5Hn8o986nZLpVU29VJZhTPvMKAvqg95EeAYAAAAgJjBtE92VkZGhRYsW6Q9/+IPy8vK0fft2s0vE+eCDDzR16lT985//1LPPPqvDDz/c7BL5Gr2qVaZc6f4v29YeC54mWbGzkWeNbWuZpam2sCkwrdIcebYzgaAuaPpnU2HwGVJVGjIlNK49RGv0qlZS5srQnUT9j+DRaOgthGcAAAAAYgLTNtETOTk5WrZsme6++25NnDhR69evN7tEjPLycjmdTn344Yd69dVXlZiYaHaJCpXz3fJmuVpDpkqVLmkLotqCJ5+8xqzJYL7li+VN9K9X1pDXOvHSW2OMPGtfUy3QUueVkp1ytE67dBY2yQ6a/umtMw5o5chraA/RSpbJF+9UsqTadaxv1l8QngEAAACICYw8Q0+deeaZqqur01577aUJEybor3/9q9mlX9uyZYtycnKUkZGhmTNnas2aNTrqqKPMblHBV5SgtCVOea4JHZ8VHERVZsfJXR9UdKbIqVp5gzYDUH1QWNZYrIROpkyWZbTu2Cn/9EzzeYPDMv91Bb5sHZkWdHxb4JY9Qw6lakEnGxRUZluyklo3HECvIjwDAAAAEBMYeYZdMXbsWL388su64IILdOGFF+q4447T448/bnbrV7799lvdfvvtGjdunB5++GE99NBDuueeezRkyBCza4RqXzOsfV2xZFWELPafqtL1Hql1WqRlWUpThX8K5ZJSf3gVP0M5iV65x/mnTTryGlSRFXTucYuVs75CmfJq8fL26CqzMEXuwHpktfKsb3teh3LrKpS5JK39ukpy1LQyU6pfrGWN/tFmIc9h+XcEbRvp5shrUFOh5B7X/r2l1XrUFLIJAXoL4RkAAAAAAF0waNAgFRcX6/nnn9fAgQOVnp6uiRMnasWKFWbXPrV161bdeuutGjt2rC6++GKdcsopqqur0y9/+Uuza+RKL+1kPbAwa4LF56ohuE9JautUyba+DuXW+Wtt4VVqSfA5G5Qb71+jzF/3/7k0L/i8obtzBq9pZtu2f+fN9NKQfqHPYe4I2j6dM+QcIT3QWwjPAAAAAMQERp5hd5k6dapefvllPfPMMxoyZIjOPPNM/eAHP9CVV16pNWvWmN17RXNzs5544gn9+te/1pgxY+R2u3XKKado/fr1Kikp0dixY81DAHQR4RkAAACAmNC25hkBGnaXU089Vf/617/0zDPPaPTo0brxxhuVnJysI488UvPmzVNdXZ15yG7V3NysZ555Rr/97W910EEHKTU1VUuWLNEvfvELrVu3Tg888IDi40OGQwHoAcIzAAAAADGB8Ax7SluIVl9frz/96U8aNmyYrr/+eh1zzDE66KCDdMopp+iSSy7R4sWL9corr2jLli3mKb7Tp59+queff1633XabfvOb32jSpEkaMWKEpk2bppKSEh133HG6++679d5772nJkiWEZsBuZNn8ywEAAABJBQUFWrVqlaqqqswSEBVycnJ07733avv27Ro0aJBZRhTqyeeaZVmqqqrSlClTzFK3vPPOO3rssce0evVq1dfXd5jOOWLECI0aNUoHH3ywvve972nUqFEaPXq0vvnmG3388cf63//+F/L45ptvAsfuv//+SkxM1NFHH62f/OT/27v3uKrKfI/j362ipnkpM6+jgmaxvYWe0jyTmZYaKJZmFqRjY3nqVVojSJnOBHlp5GKaNk42ljcoxcxLUJ6aFD1mVkqmgiZBEzCWqUml4aDu8wcXN48sBRTYl8/79dqv2M/vWWttdBM/v/tZa/XT0KFD1bhx41L7r6jK/FnBvfF3Xn6sPAMAAADgFYpXnp07d84sAVdc+/bt9fTTT2vFihVKTU2Vw+HQgQMHtGbNGs2aNUsTJkzQ4MGD1blzZ1111VU6cuSIPv30U+3bt08///yzrrnmGt18880aPny4nn76acXFxemDDz5QTk6OfvrpJ23btk1///vfFRISctnBGYCLY+UZAAAAJD6Bhhd49NFHtWTJEuXn56tevXpmGR6oMv9fu1Irz9xNZf6s4N74Oy8/Vp4BAAAA8AqsPAMAVAbhGQAAAACvwA0DAACVQXgGAAAAwCuw8gwAUBmEZwAAAAC8AuEZAKAyCM8AAAAAeAVO2wQAVAbhGQAAAACvwsozAEBFEJ4BAAAA8AqctgkAqAzCMwAAAABegdM2AQCVQXgGAAAAwCuw8gwAUBmEZwAAAAC8AivPAACVQXgGAAAAwCuw8gwAUBmEZwAAAAC8CuEZAKAiCM8AAAAAeAVO2wQAVAbhGQAAAACvwGmbAIDKIDwDAAAA4BVYeQYAqAzCMwAAAABegZVnAIDKIDwDAAAA4FUIzwAAFUF4BgAAAMArcNomAKAyCM8AAAAAeAVO2wQAVAbhGQAAAACvQHgGAKgMwjMAAAAAXoHTNgEAlUF4BgAAAMArsPIMAFAZhGcAAAAAvAorzwAAFUF4BgAAAMArsPIMAFAZhGcAAAAAvALhGQCgMgjPAAAAAHgFbhgAAKgMwjMAAAAAXoGVZwCAyiA8AwAAAOAVCM8AAJVBeAYAAADAq3DaJgCgIgjPAAAAAHgFVp6hPHx8fJSfn28Oe7zTp0+rTp065jAAwjMAAAAA3oIbBqA87Ha70tLSzGGPl5aWJrvdbg4DIDwDAAAA4C1YeYby6NKlC+EZgFIIzwAAAAB4BcIzlEeXLl20f/9+c9ijnTp1ShkZGYRngAXCMwAAAABehdM2cTE9e/bUp59+qj179pglj7VixQo1atRIAQEBZgkA4RkAAAAAb8PKM1zMkCFDNGTIEMXExJgljxUTE6Pw8HBdffXVZgnA5YRn8fHxevjhh3XTTTepQYMGstlsPLz44ePjo3bt2mnYsGGaP3++vv/+e/MtAwCAS6KnOf+IiorSli1bLhj3pgc9jeez2WyEZ7ikiIgIxcfHa+fOnWbJ48yfP18nTpzQlClTzBKAIjZHBdcsx8XFKSYmRqdOndLw4cPVp08f+fn56aqrrjKnwosUFBQoNzdXu3btUnJysjIzMzVx4kRFRUXpmmuuMacDAFDj6GlQFnoazxYZGakXX3xRH374oQYOHGiW4YEiIyOVkpKizZs3m6VLGjFihM6cOaMNGzaYJY+RkZGh/v37a+LEiXr22WfNMjzc5fx8eJtyh2eZmZkaP368vvzyS/3lL3/RU089JR8fH3MaIElas2aNZs+erSNHjmjx4sUKDAw0pwAAUCPoaVAR9DSeJTIyUjNmzNAHH3ygu+++2yzDA11OOPDNN99o4MCB6t+/v5YuXWqW3d7x48c1YMAAtW/fXuvXrzfL8AKX8/Phbcp12ua+ffs0YMAANWjQQPv27dOf/vQnmkxc1P3336/du3dr9OjRCgoKUkJCgjkFAIBqR0+DiqKn8UzlXD8AL9exY0clJiZq7dq1mjx5sll2e/fff78aNWqkxMREswTAcMnw7JdfftHo0aPVu3dvJSUlqU2bNuYUwFJcXJxmzpyp0NBQbdmyxSwDAFBt6GlwOehpPAvXPEN53XLLLUpMTNTLL7+sadOmmWW3dPToUd1///36/vvvlZiYqLp165pTABguGZ49/fTTql+/vt566y2zBJTLtGnTNGHCBD311FNmCQCAakNPg8tFT+MZuGEAKmrw4MFavXq1Fi9erIEDB+rgwYPmFLexceNGBQQE6PDhw1qzZo1atmxpTgFQhouGZ1u3btWbb76puLg41ap10anARb388sv66aefNGfOHLMEAECVo6fBlUJP4xk4bRMVNWrUKKWmpqphw4bq2bOnli1bZk5xedOmTVNwcLAeeOABbd++XXa73ZwCwMJFu8dFixZp5MiR6t+/v1kCKqRBgwYKCwvTq6++apYAAKhy9DS4Uuhp3N/Zs2dZeYZKadu2rTZs2KBp06Zp3Lhxuu+++7R161ZzmstJSEjQLbfcosWLF2v16tWKi4szpwC4BMvwLD8/X4mJiRozZoxZAirlD3/4g7Kzs/Xhhx+aJQAAqgw9Da40ehr3x8ozXI7nn39en3zyiXx8fHTHHXdo+PDhLnktxJUrV6pXr14KDQ1Vv3799OWXX2rUqFHmNADlYBme/d///Z/Onj2rwYMHmyWgUpo1a6bbb79d27ZtM0sAAFQZehpcafQ07o+VZ7hct912m1avXq1PP/1UV111le68804NGzZMb7zxho4dO2ZOrzZff/21oqOjdfPNN+sPf/iDBgwYoNzcXMXFxXGjHOAyWIZnBw8elN1uV/369c0SUGldu3ZVenq6OQwAQJWhp0FVoKdxb4RnuFJ69+6tt99+W5999platWqlqVOn6rrrrlNgYKBee+01ff/99+YmV9y+ffs0a9Ys3Xrrrbrxxhu1dOlSBQYGKjc3VzExMWrdurW5CYAKsgzPjh07puuuu84cBi5L8+bNa/STGACA96GnQVWgp3FvnLaJK634mmI//PCDNm3aJF9fX82YMUOtWrVS165dFRoaqujoaH3wwQc6fPiwuXm5HTp0SGvWrNFf/vIXDR8+XL6+vurWrZsSExN1zz33aNeuXUpLS9Ps2bO5kyZwBdkcFr85oqKitGXLFm3evNksAZXG+woAUN343YOqwPvKPUVGRioqKkqrV6/m2k9eIjIyUikpKTX2s5qSkqIvv/xSX331lfbs2aM9e/bozJkzat26tZo1a6YmTZqoSZMmatq0acnXZ86cUV5eXsnjxIkTysvLU25urn7++Wc1bdpU3bt3V48ePdSjRw/17t1bXbt2NQ+NCsjOzi71Z+383zp16pT83Tj/fbVu3VpNmzY1d+VWavrnw50QnqFa8b7yAhtDZQtOMEcLjUmSY3mgOeoCkpW8MVCBwyRlxMl+wxKNP5SmsE7mPADuiN89qAq8r9xTcXj29ttva/To0WYZHsgVw4E9e/boq6++KglonMOavLw81a5duyRMc/7v9ddfr+7du6tTJ5rUyjp37lypILP466NHj5bMufrqq0uFZGaY+dtvv5XM9fPzU/fu3dWtWzd1795d3bt3V+fOnUvqrs4Vfz5cleVpmwBQeSFKcjjkKPVIUsiKINljsszJNSxZobYgxZvDAADAY1msHwCqRY8ePTRmzBhNnDhR06dPV0xMjF5//XWtXr1amzZtUnJyshISErRo0SK99NJLeu655/T4449rxIgRBGeV8Ntvv+ntt9/WQw89pKuvvloBAQGaNm2aDh48qFtuuUULFixQWlqafvzxRxUUFOiXX35RTk6O9u/fr+3bt2vnzp06cOCADh8+rFOnTik/P18//PCDduzYoWeffVZt27ZVSkqKHnvsMd14443y8/PTM888o3/+85/mS4EbIzwDUE0CNTPaX+nL18rV4jMAAOBduGEA4PmWL1+ukSNHqlGjRnrsscdUu3ZtLVu2TIcPH1ZOTo6SkpL00ksv6cEHH5S/v7+uu+461alTx9zNBerVq6frr79effr00YQJE7RgwQKlpKTop59+UmZmpiZPnqy0tDTdddddatmypSZMmKD33nvP3A3cDOEZgBqRFWOXbWyc4rrZZLPZzq9Iy4iT3VY4ZrPZZBubfH6jjDjZbXbFxYSer9tClSwpeazFNio6ldRpn+dXvxWuOkuQlBBsbPeu8zZ2xWWcL0kX22fR99YtrlRIaI5lxdgttwcAAFWLlWeA55o/f746dOigZ555Ro0bN9Y777yjX375RStXrtSoUaOq9EYKvr6+euqpp/S///u/OnLkiGbNmqUjR45o2LBh6tevn9auXWtuAjdBeAagemTEKSgiXf5jR8i3eGxFuHbPLjytM22Kb2EgdUO4AjaUPtWzdBiWrvDlPZXpcMjhyFRs1wQF2WyKH1W0zaFY+a8IUujGwtlZMXbZguV0GmmSAiL8isKqQMU7khQiKWSDw+l6bM7HcCgzWgq/oTCku/Q+y2FjqPwiAs5vfyhWigi6MKADAABVgpVngOd5+eWX1a5dO82aNUv/8z//o3//+9968803NXz4cHNqtWjevLnGjx+vdevW6eDBg+rSpYtGjhypvn37avXq1eZ0uDjCMwBVoDDQcl5ZZbshXIrOLAzJSoQodNj5Z8mJCdKYJMWXjAUqfkOItCK+JLiSpJDZYUUBnK9GjPWXusZqZvE2nfwVUDIzS2uXpytkQ7zO36agcJ/pEdNL7dN0/hiS733j5a9UpWfosvZZLOtAaumBTmFKc3CDAgAAqgvhGeA5Nm3apI4dO2rOnDl68sknlZOTo6lTp6p+/frm1BrTuXNnLVq0SN9884169eql0aNHa8iQIcrKKueH76hxhGcAqkBZNwwoWl3mrGtP+Zc8yVJ6quTf7fyIJGlYqEJKgitJ8ldPY4q1dO3eV3RKpnOQZ3U30BIXO0Zl93me75RYhTgFjOVesQYAAK4ITtsEPENUVJSGDBmiwMBA5eTk6Nlnn1XdunXNaS7Dz89PCxYsUGZmpmw2m3r27Km33nrLnAYXRHgGwLVlpMtYp1V+RduGlJwG6vxwXjlWAVdkn4GKL9omM9pf6RF+hGgAAFQjVp4B7i0rK0v33HOP5s6dq5UrV2rBggXluti/q/D19dX777+vp59+WiEhIXrmmWfMKXAxhGcAXISv/AOk9L3ppYfTdytdAfKvzCmNRadwph64gqFUJfd5wfdVxHdK2vkQjTuRAgBQLQjPAPeVnZ2twYMH69y5c0pNTVVoaKg5xW1ERkYqOTlZ69at08iRI80yXAjhGQCXETgqRHK62L+UrNDgBGlMaDlXdJkCNTPaX+nGxfiTx9qc7nzpr55dKxKGXXqfvjcFSPvCNb34+8iIU/iK83ML77R5/gYExddRK3UzBQAAUGU4bRNwT6dOndKoUaPk6+urTZs2yc/Pz5zidu655x69//77+uSTT/T444+bZbgIwjMArmNYvByHYpVacj2xICWMSXK6C2bF+U5JK7pb5vnrkwWlxipzb+mbDqRH+DkFahd3yX0Oi1dmtP/566LdJ8VGn7+Imu+UNCWNcb6pgp/CA5IuvCYcAACoEqw8A9zTqFGjdPbsWSUmJpolt+bv769Vq1bpH//4h/785z+bZbgAwjMAV9aw+HJd+8t3SpocJQGWk05hSnO+jphzcFbGXSkv3E/h9cTO37Hz/KmRJQ/juCX1vWHyLeMYlsctzz6LaoHG6wxcblwv7TICQgAAUDGsPAPcz6RJk3TgwAElJiaqcePGZtnt9evXT6tWrdLMmTO1cuVKs4waRngGAAAAwKuw8gxwLxkZGVqwYIHmzJmjDh06mGWPMXLkSE2ZMkVxcXFmCTWM8AwAAACAx9m7d69Onz5tDktlhGefffZZqecAXEtMTIz69eun+++/3yx5nLCwMO3bt0/Lli0zS6hBhGcAAAAAPI6Pj4/8/Pz0t7/97YIQrfi0zXXr1ikgIEBfffVVqToA17Fv3z4tXrxYU6ZMMUseqUWLFgoLC1NsbKxZQg0iPAMAAADgcW666Sb17dtXTz75pNq2bat58+bpzJkzkqQvv/xS3bp103333acff/xR48aNMzcH4CI+/PBDde/eXUOHDjVLHqt49dmuXbvMEmoI4RkAAAAAjxQVFSVJOn78uKZOnaq5c+dKkt58800dOnRIkjRz5kzVqVOn1HYAXEdaWprsdrs57NGaN2+uNm3aKC0tzSyhhhCeAQAAAPBIdrtdI0aMUK1atZSfn6///Oc/qlWrlhwOh06fPq1WrVrp4YcfNjcD4EK8MTyTJH9/f8IzF0J4BgAAAMBjzZgxo+R0zbNnz5bcLMDHx0ezZs1i1Zkb+/bbb3XixAlzGB7GW8Mzu91OeOZCPCw8y1JcN5tsNudHqJLNaVUgK8YuW7c4ZZkFVFpaWpo+/vhjcxgAAPe0MdToUZweY69st5K1MfkSPUkZPVM19DH0S6gJdrtdwcHBF4Rk11xzjcaOHVtqDO6lefPmCggIUEREhI4fP26W4SFOnDih/fv3m8Meb8eOHdqxY4c5jBriOeHZxlDZbH5aMjZTDoej5JEZnaogm02hG80N4KoOHDigBx54QL169fLKTxgAAJ4sRElOfUrhI0khK4Jkj7kykVJWjF1+z6ebw06SFVpGz5QUEC6/Kv7Q0XdKmhx7w+RrFoAq9tJLL5WsPpOk2rVra86cOapdu3apeXAvDRs21KRJkxQTE6OWLVsqPDxcx44dM6fBA2RnZ5tDHu/o0aNq0KCBOYwa4iHhWbJCgxPkH52ptCml2zHfKWnKjPZXwvN8yunqDhw4oJCQENntdiUmJuqPf/yjWrZsaU4DAMDDBGpmtL/Sl6+tnl5lY7wSFKJYo2cKXJ6kECUong8c4YHsdruGDh1asvqsYcOGrDrzEE888YSaNWumgoICzZs3T61atdLkyZNZieZhvvvuO3PI4x09elRXXXWVOYwa4hnhmUUTWKzUp5wZcbLbQhUXYy99ikIZp1I4fwKcPNYm29i40qc4lHGKxdqxFzn9oVzHSC78r8U+StVsNtlsdsVlOE1wQwcPHlRoaKjsdrveffddORwO1apVS88995w5FQAA75ARJ7vz73uj58gq7mOMfiIrxi6/iHRpX7j8LtojpCr9glqg4h0OxQ9zGrro60hWqM2uuJji/iZUUUW9TCkZcbIXvZYLT9tMVmipvsZY+Wb0TldqdR68U/G1z2w2mwYNGqRatTzjn0Lern79+oqKipKPj4/Onj2rgoICLVy4UK1bt1ZYWJhOnTplbgI35G3h2cmTJ/XLL7+w8syFeMRvjOTEBGlMqALNgqUEhe+NLTxNYW+YfDPiZA9OVewh59M9/ZUeEVS66VwR7nSKQxmnWOwL15JuxfVMxSpcfsUNZLmPEaT4UU6ncewLV5BTQxyUGqvMklMsMhXbNV3h97nnqrqMjAyNGTOmVGiWn5+vOnXqaNy4cfrd735nbgIAgOfJiFNQRLr8x44o/KBvY6hsN4QrYEPp0zpLQqmNofKLCDh/+uehWKmonyheca+uscp0pCmsk3EsSRo2s7B/uKGsQMzJxlDZblii8SW9S6ZiU51ehyQpXeHLexb1JvF6YVSItCK8VG+T9e4SpXcdrxEXvJZkhdqClDAm6fypo2MSFFQUrmXF2GULltNprkkKiPAjQEOl3XzzzQoMDFTdunXVvXt3s+w1zp07pzNnzug///mPfvvtt5J/pJ84cULHjx/X0aNHdeTIER0+fFi5ubnKzs7Wt99+q8zMTGVkZOjrr79Wenq69u/fr7179+rLL7/U7t279cUXX2jnzp3asWOHtm/frm3btmnLli36+OOP9dFHH2nTpk16//33lZSUpA0bNmjdunVau3at1qxZo1WrVumtt95SfHy8li9frqVLl+qNN97Q66+/rtdee02LFi3Sq6++qldeeUXz5s3T3LlzFRMTozlz5uill17SsWPHVLdu3ZLvsaCgQKdPn9bChQsVFxengoKCUn8GcD/F7z1vsWLFCjVu3FiNGjUyS6ghNofD4TAHJSkqKkpbtmzR5s2bzZLLSR5rU5CS5Fh+Pj4r+eS1hL9iD6UpTHGyFzWkpT5ZNWXEyX7DEo0/VNh4Jo+1FQZXztfp2Bha1NTFyz/GXtTIxpeEeFkxdvktH196G2flOEZZ35uzSx7DxURFRenDDz9Up06dtGLFCtWtW1f5+fnmNE2aNEnXXHONOQwAQIWlpKTI4XBoy5YtZql6bQyVLTjBHJWkUpeeKPN3/yV6Dmfl7g3KeD3m6wjvZlwSo1TvUhh+pZa6bEaW4roVXk+tcKz081Kvzel7uvD7KNxu92yjX7voNtUrKipKr7zyirp162aW4MJOnTqlrKwsdevWTf369TPLkiSHw1FyV87ih/Pz8tZqap753KxVJ5vNplq1aql27dqqVavWRb82n1+sVtbzgwcP6vjx4zp79qz5MtSnTx8uvO7GbDabBg4cqAYNGmjDhg1m2eOcOnVKHTp00G233aaff/65SjOZyMhIpaSkVOkxPIXHhmelODd6Kh1YlVb0CWjJ86LArTjYMo/htN8R717YqJbdvFbsGGWNXdDsdjVCPRcWFRWlNWvW6IcfftDRo0dV1tuvVq1a6tu37wV3RAIAoDK+/fZbtW/f3kXCs0sFP2b4VCxZobZw9XQKrYo7AfOar2X3H5dSeNzwfVLIBofih51/fqHi3qXwdcj4QLLU8Y0PCp1ruujrNPslZyGX+DOsHlFRUZo9ezan1Lippk2bqkOHDuawVPQPdasQxwxsrGrlnWc+t/rafH6x2qWeX6xWFc9tNpv5R3zFZWRkqHPnzqX+bVG7dm3VrVtXt9xyi2w2W83/DkCl2Ww2rVy5UmPHjtW2bdvUt29fc4pHmT59upYvX65HHnlEW7durdJMhvCsAhwWIiMjHf379zeHXdOGEIcU4kgyx4sdinX4y98Re8j4ulRdDkkO/+jMC7dxOBxJY+TQGOMITnMyo/0d6hrrKNra4XAYY5U8hvNYZrS/Q5JDTtuUdVxXVvy+ys/Pd8yfP9/RvHlzR61atYq+r8KHj4+P48UXXzQ3BQCgUlymp7lUv+JwOByOTEdsV6deoVhZ/Uup3uD8NpXvDQqPXdh3JDlCnHuWMhXOCdlgDJv9kVNv4/zaLvo6i/qmC/btQlzmfQXAMXr0aEedOnVK/i1Rv359x/PPP+84duyY44UXXuBn1c1JcmzevNnx8MMPO9q1a+fIzc01p3iMzZs3O+rUqeNYunRptbx3q+MYnsIjrnmmYaEKUYLCK3kNjMJrcRReS6zkk9v03brgJu+p6aWvLZa+W+kKkP8FK9guVO5jWMrS2uXp8o/OlMPpGibpe8u/B1dSr149TZo0SdnZ2Zo3b56uv/76kk+mCgoKFB0drd9++83cDAAAD+cr/4Ayfr9b9By+U9LOX0e1XHfrzCq8+VGZ1zkrPHYhf/XsWsbrKI9OIzS+a7qWvBun6RHpChlV9hox35sCpH0WvVAnfwVISj1w6e8IgHc7ePCgVq9erTNnzqhu3bp65plnlJOTo1mzZunaa681p8ONzZ8/Xw0bNtSAAQN04sQJs+z2Pv/8cwUFBemhhx7ibsAuyDPCMwUq/lCsFOF3QTOYFWOX7YZwpY+JLeM0TSfOzVtGnOxlXZPE6eL9UrJCgxPkHz2z/KcNlOcYl+DcxGbF2BW0olTZ7dSrV08TJ07Ud999p3nz5um6666TJP36669atGiROR0AAI8XOCpEWhGk0I3FI4U9R/HNkQrvtOl8V8qiD9iKbjhw0VBKvgqbXbj/Cy68nxGn8BX+iv1LYKl5519HWccuS+G26RHhSlCIQq2uMVvWh58bQ4v2H6iZZdxYKXnshXciB+DdZs2aJR8fH4WHhys3N1fR0dFq1qyZOQ0e4Nprr1VKSorOnTunwYMH6+TJk+YUt/X1119r0KBBGjRokJYuXVotpzujYjwkPJPUKUxpxXeBcrqlecndqKyuh1b0qW3SmAQFFW93wxKNP5SkEKVrybtO7dmYWI1f7le0b/MCuRdX7mNY8lXY3qK7bRV/b8vHK3NDiLRvidZecLt591IcomVnZ2vBggVq2bKl5syZo9OnT5tTAQDwbMPi5TgUq9Tg4n6m6I6URb3MBT2FzU/hAUnne5KiUCrIZisVfJUYFl9y50rnnsl2w27FOt+hc1i8HBtClFDyOor7qnJcb2xYqEKkS9wNPVDx5utwuiZc4Z1Ddf6uoLYLb6wEwLvl5uaqRYsWys7OVkxMTMkH8fBczZs3V0pKin788Uf16tVLu3btMqe4nTfffFO9e/dW3759lZiYqFq1PCem8SQeccOA6lDmhftRYeV9XxUUFOgf//iH2rRpo+DgYLMMAEC5lfd3D1ARvK8A98AF0d2fzWbT5s2b1b9//5KxY8eO6ZFHHlFycrImT56sF198UfXr1y+1navLycnR2LFjtXXrVk2bNk1//vOfS900rzreu9VxDE9BpAmX5OPjoyeeeILgDAAAAABQSrNmzbRhwwa99tprWrhwobp27ar169eb01zW3LlzdeONN+rbb7/V9u3bFRUVVSo4g+shPAMAAAAAAG5n/Pjx2r9/v1q1aqV7771XvXr10saNZV2zwDX87W9/U6tWrRQWFqaQkBDt3btXvXv3NqfBBRGelVPg8otfNw0AAAAAAFQvX19fbdu2TR9++KHq16+v4OBglwrR8vPzNW/ePLVu3VoTJ07UgAEDdOjQIb3++utq2LChOR0uivAMAAAAAAC4tbvuukvbt28vFaK1b99eEydO1EcffaSCggJzkyqTl5enhIQEPfjgg2rRooXCw8M1YMAAHTx4UPHx8erUqfjuPHAXhGcAAAAAAMAjFIdou3fv1oMPPqh169bp7rvvVrNmzfTAAw9o4cKFSklJUV5enrlppWVnZyspKUl//etfdeedd6pp06YKDQ3VN998oxdeeEE5OTlauXIloZkbIzwDAAAAAAAeJSAgQHPmzFF2dra2bdumMWPG6OOPP9bEiRPVv39/NW3aVG3atNGQIUMUERGhefPmKT4+Xh999JF2796t7OxsSdLPP/+szMxM7dy5U++9957efPNNRUdHa9KkSbr99tvVtGlTtWvXTkOHDtXUqVP1ww8/aMaMGcrMzNTnn3+uyZMnq2XLlubLg5shPAMAAAAAAB7r97//vV599VX9+OOP+uabb7R+/XrNmjVLd9xxh/79739r/vz5+tOf/qSHH35Yd999t3r16qV27drJZrOpSZMm6tixo/r06aNhw4bpj3/8o5599lktW7ZMZ8+e1QMPPKD58+frn//8p77//nulpaVp+vTp8vX1NV8G3BjhGQAAAAAA8Hg2m01+fn4KDg7W888/r4SEBH311Vc6ffq0Tp48qR9//FH/+te/lJ6eri+++EJbt27V9u3blZqaqoMHDyo7O1vHjh2Tw+FQXl6ePvnkEy1evFiTJk3SgAED1KJFC/OQ8BCEZwAAAAAAwKs1aNBA1113ndq1a6ebbrpJvXr10u23366+ffvq5ptvVufOndW2bVtde+215qbwAoRnAAAAAAAAgAXCMwAAAAAAAMAC4RkAAAAAAABggfAMAAAAAAAAsEB4BgAAAAAAAFggPAMAAAAAAAAsEJ4BAAAAAAAAFgjPAAAAAAAAAAuEZwAAAAAAAIAFwjMAAAAAAADAAuEZAAAAAAAAYIHwDNXK4XCYQwAAAG6HngYAAO9hGZ41atRIeXl55jBwWfLy8tS4cWNzGACAKkNPg6pATwMAgPewDM86duyor7/+2hwGLsvXX3+tjh07msMAAFQZehpUBXoaAAC8h2V41rt3b508eVLbt283S0Clbdu2TX369DGHAQCoMvQ0qAr0NAAAeA/L8Kxly5a688479fbbb5sloFLefvttnT59WkOHDjVLAABUGXoaXGn0NAAAeBfL8EySHn30US1cuFD/+te/zBJQYfPnz9djjz2mBg0amCUAAKoUPQ2uJHoaAAC8y0XDs5CQEN1xxx169tlnzRJQIbGxsdqzZ4+ee+45swQAQJWjp8GVQk8DAID3uWh4Jklz585VYmKiXnzxRbMElMv69es1ZcoUzZs3T23btjXLAABUC3oaXC56GgAAvNMlw7OePXsqISFBL7zwgqZPn26WgYuKj4/Xvffeq6lTp2rChAlmGQCAakNPg8tBTwMAgPe6ZHgmSaNHj9Y777yjV155RYMGDdKnn35qTgFKyc3N1eOPP66HH35YM2fO1OzZs80pAABUO3oaVBQ9DQAAKFd4JkkjRoxQamqqmjRpottuu0333HOPFi9erH379unUqVPmdHiZgoICZWVlKTExUePGjVPbtm21e/dubdq0SdOmTTOnAwBQY+hpcDH0NAAAwFTu8EySOnbsqMTERG3fvl3t27fXzJkz1a1bNzVs2FA2m42HFz/q1q0rPz8/Pfroo/r111+1Zs0affbZZxo0aJD5NgIAoMbR0/CwetDTAAAAk83hcDjMwYrIzc1Vdna28vPzzRK8SJ06ddSyZUt16tTJLAEA4BboaSB6GsDjREZGKiUlRZs3bzZLcBM2m02bN29W//79zZJHq473bnUcw1NcdngGAAAAAIArIhxwf4RnVfferY5jeIoKnbYJAAAAAAAAeBPCMwAAAAAAAMAC4RkAAAAAAABggfAMAAAAAAAAsEB4BgAAAAAAXFLr1q2VnZ1tDnu8nJwctWrVyhxGDSE8AwAAAAAALqlLly5KS0szhz1eWlqa7Ha7OYwaQngGAAAAAABckt1u1/79+81hj0d45loIzwAAAAAAgEvyxpVne/fuVV5eHuGZCyE8AwAAAAAALumBBx7QkSNHtGjRIrPksWJiYjR48GDddNNNZgk1hPAMAAAAAAC4pCZNmigiIkIxMTFmySN9/vnnWrFihaZMmWKWUIMIzwAAAAAAgMuaMmWKTp48qZdfftkseZyYmBgFBwdr4MCBZgk1iPAMAAAAAAC4rHr16ikiIkKTJ09WUlKSWfYYs2fPVmJiIqvOXBDhGQAAAAAAcGlhYWEKDw/XqFGjtGPHDrPs9v7+979r2rRpWrlypX7/+9+bZdQwwjMAAAAAAODyYmJi9NBDD2nUqFE6ePCgWXZbq1ev1hNPPKH58+crNDTULMMFEJ4BAAAAAAC3sGTJEt1yyy367//+b61evdosu52ZM2dq9OjReuGFFzRp0iSzDBdBeAYAAAAAANzGu+++qyeeeEKjR4/W5MmTzbJb+O677zR06FD99a9/1bJlyxQZGWlOgQshPAMAAAAAAG5lxowZeu+99/TOO++ob9++2rZtmznFZb311lvq2bOn8vPztXv3bo0dO9acAhdDeAYAAAAAANxOUFCQdu/erd/97nfq16+f7r33XqWkpJjTXEZ8fLz+67/+SyEhIXr88cf10UcfqXPnzuY0uCDCMwAAAAAA4JaaNWumVatWaceOHapXr5769++v4OBgbd682ZxaY1asWKGAgACNGTNG/fv3V05OjmbOnGlOgwsjPAMAAAAAAG6tT58+WrVqlXbu3KmGDRtqwIABuuGGGxQeHl7tp3SeO3dO7777rsaNG6drrrlGjzzyiO666y7l5uYqNjZWbdq0MTeBiyM8AwAAAAAAHuHWW2/VW2+9pczMTD355JPatWuX+vXrpw4dOujpp5/WqlWrdODAAXOzy1JQUKAvvvhCb7zxhkJDQ9W4cWONHj1aJ0+e1IIFC/TTTz8pJiZGrVq1MjeFm7A5HA6HOQgAAAAAgLuLjIxUSkqKS53Ch+qXm5ur9evXa/369dq1a5eOHTumhg0bqkePHurRo4e6d++u5s2bq0mTJmrSpImaNm1a8vWZM2eUl5dX8jhx4oTy8vKUk5OjPXv2aM+ePfrqq68kSe3bt1ffvn01fPhwDR8+XPXr1zdfikvh56P8CM8AAAAAAB6JcABl+fbbb0tCr+L/Hj9+XHl5eTpz5ow5vZT69eurSZMmatmyZUn45hzAuRN+PsqP8AwAAAAA4JEIB1BRv/76a6kVZnXq1Cm1Gs3VV5NVBD8f5cc1zwAAAAAAACRdffXVatOmjbp06aK+ffvq1ltv1Y033qgWLVp4VHCGiiE8AwAAAAAAACwQngEAAAAAAAAWCM8AAAAAAAAAC4RnAAAAAAAAgAXCMwAAAAAAAMAC4RkAAAAAAABggfAMAAAAAAAAsEB4BgAAAAAAAFggPAMAAAAAAAAs2BwOh8McBAAAAADA3UVGRiolJUV33HGHWQIgKSUlRZs3bzaHYSA8AwAAAAB4pOLwDIA1wrNLIzwDAAAAAAAALHDNMwAAAAAAAMAC4RkAAAAAAABggfAMAAAAAAAAsEB4BgAAAAAAAFggPAMAAAAAAAAsEJ4BAAAAAAAAFgjPAAAAAAAAAAuEZwAAAAAAAIAFwjMAAAAAAADAAuEZAAAAAAAAYIHwDAAAAAAAALBAeAYAAAAAAABYIDwDAAAAAAAALBCeAQAAAAAAABYIzwAAAAAAAAALhGcAAAAAAACABcIzAAAAAAAAwALhGQAAAAAAAGCB8AwAAAAAAACwQHgGAAAAAAAAWCA8AwAAAAAAACwQngEAAAAAAAAWCM8AAAAAAAAAC4RnAAAAAAAAgAXCMwAAAAAAAMAC4RkAAAAAAABggfAMAAAAAAAAsEB4BgAAAAAAAFggPAMAAAAAAAAsEJ4BAAAAAAAAFgjPAAAAAAAAAAuEZwAAAAAAAIAFwjMAAAAAAADAAuEZAAAAAAAAYIHwDAAAAAAAALBAeAYAAAAAAABYIDwDAAAAAAAALBCeAQAAAAAAABYIzwAAAAAAAAALhGcAAAAAAACABcIzAAAAAAAAwALhGQAAAAAAAGCB8AwAAAAAAACwQHgGAAAAAAAAWCA8AwAAAAAAACwQngEAAAAAAAAWCM8AAAAAAAAAC4RnAAAAAAAAgAXCMwAAAAAAAMAC4RkAAAAAAABggfAMAAAAAAAAsEB4BgAAAAAAAFggPAMAAAAAAAAsEJ4BAAAAAAAAFgjPAAAAAAAAAAuEZwAAAAAAAIAFwjMAAAAAAADAAuEZAAAAAAAAYIHwDAAAAAAAALBAeAYAAAAAAABYIDwDAAAAAAAALBCeAQAAAAAAABYIzwAAAAAAAAALhGcAAAAAAACABcIzAAAAAAAAwALhGQAAAAAAAGCB8AwAAAAAAACwQHgGAAAAAAAAWCA8AwAAAAAAACwQngEAAAAAAAAWCM8AAAAAAAAAC4RnAAAAAAAAgAXCMwAAAAAAAMAC4RkAAAAAAABggfAMAAAAAAAAsEB4BgAAAAAAAFggPAMAAAAAAAAsEJ4BAAAAAAAAFgjPAAAAAAAAAAuEZwAAAAAAAIAFwjMAAAAAAADAwv8DWHEsp2vEeOUAAAAASUVORK5CYII=;" parent="1" vertex="1">
          <mxGeometry x="280" y="240" width="1200" height="780" as="geometry" />
        </mxCell>
      </root>
    </mxGraphModel>
  </diagram>
</mxfile>
